<svg xmlns="http://www.w3.org/2000/svg" xmlns:xlink="http://www.w3.org/1999/xlink" width="864" zoomAndPan="magnify" viewBox="0 0 648 470.25" height="627" preserveAspectRatio="xMidYMid meet" version="1.0"><defs><g/><clipPath id="82ea1da85f"><path d="M 305.359375 165.484375 L 410.941406 165.484375 L 410.941406 271.066406 L 305.359375 271.066406 Z M 305.359375 165.484375 " clip-rule="nonzero"/></clipPath><clipPath id="0735ba1920"><path d="M 324.828125 165.484375 L 391.472656 165.484375 C 402.222656 165.484375 410.941406 174.203125 410.941406 184.953125 L 410.941406 251.597656 C 410.941406 262.351562 402.222656 271.066406 391.472656 271.066406 L 324.828125 271.066406 C 314.074219 271.066406 305.359375 262.351562 305.359375 251.597656 L 305.359375 184.953125 C 305.359375 174.203125 314.074219 165.484375 324.828125 165.484375 Z M 324.828125 165.484375 " clip-rule="nonzero"/></clipPath><clipPath id="a0c850ddbe"><path d="M 0.359375 0.484375 L 105.941406 0.484375 L 105.941406 106.066406 L 0.359375 106.066406 Z M 0.359375 0.484375 " clip-rule="nonzero"/></clipPath><clipPath id="e4acab7998"><path d="M 19.828125 0.484375 L 86.472656 0.484375 C 97.222656 0.484375 105.941406 9.203125 105.941406 19.953125 L 105.941406 86.597656 C 105.941406 97.351562 97.222656 106.066406 86.472656 106.066406 L 19.828125 106.066406 C 9.074219 106.066406 0.359375 97.351562 0.359375 86.597656 L 0.359375 19.953125 C 0.359375 9.203125 9.074219 0.484375 19.828125 0.484375 Z M 19.828125 0.484375 " clip-rule="nonzero"/></clipPath><clipPath id="742cab1428"><rect x="0" width="106" y="0" height="107"/></clipPath><clipPath id="6dc568880b"><path d="M 523.425781 165.484375 L 647 165.484375 L 647 271.066406 L 523.425781 271.066406 Z M 523.425781 165.484375 " clip-rule="nonzero"/></clipPath><clipPath id="78a173659a"><path d="M 542.898438 165.484375 L 627.511719 165.484375 C 638.265625 165.484375 646.980469 174.203125 646.980469 184.953125 L 646.980469 251.597656 C 646.980469 262.351562 638.265625 271.066406 627.511719 271.066406 L 542.898438 271.066406 C 532.144531 271.066406 523.425781 262.351562 523.425781 251.597656 L 523.425781 184.953125 C 523.425781 174.203125 532.144531 165.484375 542.898438 165.484375 Z M 542.898438 165.484375 " clip-rule="nonzero"/></clipPath><clipPath id="83cbf84bfb"><path d="M 0.425781 0.484375 L 124 0.484375 L 124 106.066406 L 0.425781 106.066406 Z M 0.425781 0.484375 " clip-rule="nonzero"/></clipPath><clipPath id="125aac8fd8"><path d="M 19.898438 0.484375 L 104.511719 0.484375 C 115.265625 0.484375 123.980469 9.203125 123.980469 19.953125 L 123.980469 86.597656 C 123.980469 97.351562 115.265625 106.066406 104.511719 106.066406 L 19.898438 106.066406 C 9.144531 106.066406 0.425781 97.351562 0.425781 86.597656 L 0.425781 19.953125 C 0.425781 9.203125 9.144531 0.484375 19.898438 0.484375 Z M 19.898438 0.484375 " clip-rule="nonzero"/></clipPath><clipPath id="60a58e2678"><rect x="0" width="124" y="0" height="107"/></clipPath><clipPath id="2ea5fdb7ac"><path d="M 523.425781 165.484375 L 646.980469 165.484375 L 646.980469 271.066406 L 523.425781 271.066406 Z M 523.425781 165.484375 " clip-rule="nonzero"/></clipPath><clipPath id="712e9dc705"><path d="M 542.898438 165.484375 L 627.511719 165.484375 C 638.265625 165.484375 646.980469 174.203125 646.980469 184.953125 L 646.980469 251.597656 C 646.980469 262.351562 638.265625 271.066406 627.511719 271.066406 L 542.898438 271.066406 C 532.144531 271.066406 523.425781 262.351562 523.425781 251.597656 L 523.425781 184.953125 C 523.425781 174.203125 532.144531 165.484375 542.898438 165.484375 Z M 542.898438 165.484375 " clip-rule="nonzero"/></clipPath><clipPath id="27e53fa58c"><path d="M 523.425781 330.972656 L 647 330.972656 L 647 436.554688 L 523.425781 436.554688 Z M 523.425781 330.972656 " clip-rule="nonzero"/></clipPath><clipPath id="3cecac6d3c"><path d="M 542.898438 330.972656 L 627.511719 330.972656 C 638.265625 330.972656 646.980469 339.6875 646.980469 350.441406 L 646.980469 417.085938 C 646.980469 427.835938 638.265625 436.554688 627.511719 436.554688 L 542.898438 436.554688 C 532.144531 436.554688 523.425781 427.835938 523.425781 417.085938 L 523.425781 350.441406 C 523.425781 339.6875 532.144531 330.972656 542.898438 330.972656 Z M 542.898438 330.972656 " clip-rule="nonzero"/></clipPath><clipPath id="55befbd40f"><path d="M 0.425781 0.972656 L 124 0.972656 L 124 106.554688 L 0.425781 106.554688 Z M 0.425781 0.972656 " clip-rule="nonzero"/></clipPath><clipPath id="2b81a294d9"><path d="M 19.898438 0.972656 L 104.511719 0.972656 C 115.265625 0.972656 123.980469 9.6875 123.980469 20.441406 L 123.980469 87.085938 C 123.980469 97.835938 115.265625 106.554688 104.511719 106.554688 L 19.898438 106.554688 C 9.144531 106.554688 0.425781 97.835938 0.425781 87.085938 L 0.425781 20.441406 C 0.425781 9.6875 9.144531 0.972656 19.898438 0.972656 Z M 19.898438 0.972656 " clip-rule="nonzero"/></clipPath><clipPath id="e72a33d862"><rect x="0" width="124" y="0" height="107"/></clipPath><clipPath id="f512ebf673"><path d="M 523.425781 330.972656 L 646.980469 330.972656 L 646.980469 436.554688 L 523.425781 436.554688 Z M 523.425781 330.972656 " clip-rule="nonzero"/></clipPath><clipPath id="9f202fb694"><path d="M 542.898438 330.972656 L 627.511719 330.972656 C 638.265625 330.972656 646.980469 339.6875 646.980469 350.441406 L 646.980469 417.085938 C 646.980469 427.835938 638.265625 436.554688 627.511719 436.554688 L 542.898438 436.554688 C 532.144531 436.554688 523.425781 427.835938 523.425781 417.085938 L 523.425781 350.441406 C 523.425781 339.6875 532.144531 330.972656 542.898438 330.972656 Z M 542.898438 330.972656 " clip-rule="nonzero"/></clipPath><clipPath id="e8ed6b3b65"><path d="M 523.425781 0 L 647 0 L 647 105.582031 L 523.425781 105.582031 Z M 523.425781 0 " clip-rule="nonzero"/></clipPath><clipPath id="91c3f1b140"><path d="M 542.898438 0 L 627.511719 0 C 638.265625 0 646.980469 8.714844 646.980469 19.46875 L 646.980469 86.113281 C 646.980469 96.863281 638.265625 105.582031 627.511719 105.582031 L 542.898438 105.582031 C 532.144531 105.582031 523.425781 96.863281 523.425781 86.113281 L 523.425781 19.46875 C 523.425781 8.714844 532.144531 0 542.898438 0 Z M 542.898438 0 " clip-rule="nonzero"/></clipPath><clipPath id="cf023d91c6"><path d="M 0.425781 0 L 124 0 L 124 105.582031 L 0.425781 105.582031 Z M 0.425781 0 " clip-rule="nonzero"/></clipPath><clipPath id="b0851da2be"><path d="M 19.898438 0 L 104.511719 0 C 115.265625 0 123.980469 8.714844 123.980469 19.46875 L 123.980469 86.113281 C 123.980469 96.863281 115.265625 105.582031 104.511719 105.582031 L 19.898438 105.582031 C 9.144531 105.582031 0.425781 96.863281 0.425781 86.113281 L 0.425781 19.46875 C 0.425781 8.714844 9.144531 0 19.898438 0 Z M 19.898438 0 " clip-rule="nonzero"/></clipPath><clipPath id="7806a1fd35"><rect x="0" width="124" y="0" height="106"/></clipPath><clipPath id="9723335030"><path d="M 523.425781 0 L 646.980469 0 L 646.980469 105.582031 L 523.425781 105.582031 Z M 523.425781 0 " clip-rule="nonzero"/></clipPath><clipPath id="c3caa17e06"><path d="M 542.898438 0 L 627.511719 0 C 638.265625 0 646.980469 8.714844 646.980469 19.46875 L 646.980469 86.113281 C 646.980469 96.863281 638.265625 105.582031 627.511719 105.582031 L 542.898438 105.582031 C 532.144531 105.582031 523.425781 96.863281 523.425781 86.113281 L 523.425781 19.46875 C 523.425781 8.714844 532.144531 0 542.898438 0 Z M 542.898438 0 " clip-rule="nonzero"/></clipPath><clipPath id="4b4901ff34"><path d="M 305.359375 0 L 410.941406 0 L 410.941406 105.582031 L 305.359375 105.582031 Z M 305.359375 0 " clip-rule="nonzero"/></clipPath><clipPath id="d831af936d"><path d="M 324.828125 0 L 391.472656 0 C 402.222656 0 410.941406 8.714844 410.941406 19.46875 L 410.941406 86.113281 C 410.941406 96.863281 402.222656 105.582031 391.472656 105.582031 L 324.828125 105.582031 C 314.074219 105.582031 305.359375 96.863281 305.359375 86.113281 L 305.359375 19.46875 C 305.359375 8.714844 314.074219 0 324.828125 0 Z M 324.828125 0 " clip-rule="nonzero"/></clipPath><clipPath id="e35e42b2bd"><path d="M 0.359375 0 L 105.941406 0 L 105.941406 105.582031 L 0.359375 105.582031 Z M 0.359375 0 " clip-rule="nonzero"/></clipPath><clipPath id="98997ab178"><path d="M 19.828125 0 L 86.472656 0 C 97.222656 0 105.941406 8.714844 105.941406 19.46875 L 105.941406 86.113281 C 105.941406 96.863281 97.222656 105.582031 86.472656 105.582031 L 19.828125 105.582031 C 9.074219 105.582031 0.359375 96.863281 0.359375 86.113281 L 0.359375 19.46875 C 0.359375 8.714844 9.074219 0 19.828125 0 Z M 19.828125 0 " clip-rule="nonzero"/></clipPath><clipPath id="56764fea31"><rect x="0" width="106" y="0" height="106"/></clipPath><clipPath id="48e749b49b"><path d="M 139.871094 363.269531 L 263.601562 363.269531 L 263.601562 468.851562 L 139.871094 468.851562 Z M 139.871094 363.269531 " clip-rule="nonzero"/></clipPath><clipPath id="b547f8c42d"><path d="M 159.339844 363.269531 L 243.957031 363.269531 C 254.710938 363.269531 263.425781 371.984375 263.425781 382.738281 L 263.425781 449.382812 C 263.425781 460.132812 254.710938 468.851562 243.957031 468.851562 L 159.339844 468.851562 C 148.589844 468.851562 139.871094 460.132812 139.871094 449.382812 L 139.871094 382.738281 C 139.871094 371.984375 148.589844 363.269531 159.339844 363.269531 Z M 159.339844 363.269531 " clip-rule="nonzero"/></clipPath><clipPath id="76123d074e"><path d="M 0.871094 0.269531 L 124.601562 0.269531 L 124.601562 105.851562 L 0.871094 105.851562 Z M 0.871094 0.269531 " clip-rule="nonzero"/></clipPath><clipPath id="9afe7e7b46"><path d="M 20.339844 0.269531 L 104.957031 0.269531 C 115.710938 0.269531 124.425781 8.984375 124.425781 19.738281 L 124.425781 86.382812 C 124.425781 97.132812 115.710938 105.851562 104.957031 105.851562 L 20.339844 105.851562 C 9.589844 105.851562 0.871094 97.132812 0.871094 86.382812 L 0.871094 19.738281 C 0.871094 8.984375 9.589844 0.269531 20.339844 0.269531 Z M 20.339844 0.269531 " clip-rule="nonzero"/></clipPath><clipPath id="479c15b64d"><rect x="0" width="125" y="0" height="106"/></clipPath><clipPath id="0b2bb6577f"><path d="M 139.871094 363.269531 L 263.425781 363.269531 L 263.425781 468.851562 L 139.871094 468.851562 Z M 139.871094 363.269531 " clip-rule="nonzero"/></clipPath><clipPath id="f9d249bcd0"><path d="M 159.339844 363.269531 L 243.957031 363.269531 C 254.710938 363.269531 263.425781 371.984375 263.425781 382.738281 L 263.425781 449.382812 C 263.425781 460.132812 254.710938 468.851562 243.957031 468.851562 L 159.339844 468.851562 C 148.589844 468.851562 139.871094 460.132812 139.871094 449.382812 L 139.871094 382.738281 C 139.871094 371.984375 148.589844 363.269531 159.339844 363.269531 Z M 159.339844 363.269531 " clip-rule="nonzero"/></clipPath><clipPath id="3c1b58423b"><path d="M 121.902344 165.484375 L 245.628906 165.484375 L 245.628906 271.066406 L 121.902344 271.066406 Z M 121.902344 165.484375 " clip-rule="nonzero"/></clipPath><clipPath id="899c585836"><path d="M 141.371094 165.484375 L 225.984375 165.484375 C 236.738281 165.484375 245.453125 174.203125 245.453125 184.953125 L 245.453125 251.597656 C 245.453125 262.351562 236.738281 271.066406 225.984375 271.066406 L 141.371094 271.066406 C 130.617188 271.066406 121.902344 262.351562 121.902344 251.597656 L 121.902344 184.953125 C 121.902344 174.203125 130.617188 165.484375 141.371094 165.484375 Z M 141.371094 165.484375 " clip-rule="nonzero"/></clipPath><clipPath id="baf4381753"><path d="M 0.902344 0.484375 L 124.628906 0.484375 L 124.628906 106.066406 L 0.902344 106.066406 Z M 0.902344 0.484375 " clip-rule="nonzero"/></clipPath><clipPath id="822dd87923"><path d="M 20.371094 0.484375 L 104.984375 0.484375 C 115.738281 0.484375 124.453125 9.203125 124.453125 19.953125 L 124.453125 86.597656 C 124.453125 97.351562 115.738281 106.066406 104.984375 106.066406 L 20.371094 106.066406 C 9.617188 106.066406 0.902344 97.351562 0.902344 86.597656 L 0.902344 19.953125 C 0.902344 9.203125 9.617188 0.484375 20.371094 0.484375 Z M 20.371094 0.484375 " clip-rule="nonzero"/></clipPath><clipPath id="0b1ca33a5c"><rect x="0" width="125" y="0" height="107"/></clipPath><clipPath id="d6908017e4"><path d="M 121.902344 165.484375 L 245.453125 165.484375 L 245.453125 271.066406 L 121.902344 271.066406 Z M 121.902344 165.484375 " clip-rule="nonzero"/></clipPath><clipPath id="309513de2f"><path d="M 141.371094 165.484375 L 225.984375 165.484375 C 236.738281 165.484375 245.453125 174.203125 245.453125 184.953125 L 245.453125 251.597656 C 245.453125 262.351562 236.738281 271.066406 225.984375 271.066406 L 141.371094 271.066406 C 130.617188 271.066406 121.902344 262.351562 121.902344 251.597656 L 121.902344 184.953125 C 121.902344 174.203125 130.617188 165.484375 141.371094 165.484375 Z M 141.371094 165.484375 " clip-rule="nonzero"/></clipPath><clipPath id="ad3bd5ed93"><path d="M 305.359375 363.269531 L 410.941406 363.269531 L 410.941406 468.851562 L 305.359375 468.851562 Z M 305.359375 363.269531 " clip-rule="nonzero"/></clipPath><clipPath id="17c4e5c06b"><path d="M 324.828125 363.269531 L 391.472656 363.269531 C 402.222656 363.269531 410.941406 371.984375 410.941406 382.738281 L 410.941406 449.382812 C 410.941406 460.132812 402.222656 468.851562 391.472656 468.851562 L 324.828125 468.851562 C 314.074219 468.851562 305.359375 460.132812 305.359375 449.382812 L 305.359375 382.738281 C 305.359375 371.984375 314.074219 363.269531 324.828125 363.269531 Z M 324.828125 363.269531 " clip-rule="nonzero"/></clipPath><clipPath id="fc13a0e832"><path d="M 0.359375 0.269531 L 105.941406 0.269531 L 105.941406 105.851562 L 0.359375 105.851562 Z M 0.359375 0.269531 " clip-rule="nonzero"/></clipPath><clipPath id="9819d98b12"><path d="M 19.828125 0.269531 L 86.472656 0.269531 C 97.222656 0.269531 105.941406 8.984375 105.941406 19.738281 L 105.941406 86.382812 C 105.941406 97.132812 97.222656 105.851562 86.472656 105.851562 L 19.828125 105.851562 C 9.074219 105.851562 0.359375 97.132812 0.359375 86.382812 L 0.359375 19.738281 C 0.359375 8.984375 9.074219 0.269531 19.828125 0.269531 Z M 19.828125 0.269531 " clip-rule="nonzero"/></clipPath><clipPath id="3482b27226"><rect x="0" width="106" y="0" height="106"/></clipPath><clipPath id="252e62525c"><path d="M 0.515625 363.269531 L 106.097656 363.269531 L 106.097656 468.851562 L 0.515625 468.851562 Z M 0.515625 363.269531 " clip-rule="nonzero"/></clipPath><clipPath id="4e90a599ad"><path d="M 19.984375 363.269531 L 86.628906 363.269531 C 97.382812 363.269531 106.097656 371.984375 106.097656 382.738281 L 106.097656 449.382812 C 106.097656 460.132812 97.382812 468.851562 86.628906 468.851562 L 19.984375 468.851562 C 9.234375 468.851562 0.515625 460.132812 0.515625 449.382812 L 0.515625 382.738281 C 0.515625 371.984375 9.234375 363.269531 19.984375 363.269531 Z M 19.984375 363.269531 " clip-rule="nonzero"/></clipPath><clipPath id="452df15e57"><path d="M 0.515625 0.269531 L 106.097656 0.269531 L 106.097656 105.851562 L 0.515625 105.851562 Z M 0.515625 0.269531 " clip-rule="nonzero"/></clipPath><clipPath id="c80114790a"><path d="M 19.984375 0.269531 L 86.628906 0.269531 C 97.382812 0.269531 106.097656 8.984375 106.097656 19.738281 L 106.097656 86.382812 C 106.097656 97.132812 97.382812 105.851562 86.628906 105.851562 L 19.984375 105.851562 C 9.234375 105.851562 0.515625 97.132812 0.515625 86.382812 L 0.515625 19.738281 C 0.515625 8.984375 9.234375 0.269531 19.984375 0.269531 Z M 19.984375 0.269531 " clip-rule="nonzero"/></clipPath><clipPath id="ef6e33c3df"><rect x="0" width="107" y="0" height="106"/></clipPath></defs><g clip-path="url(#82ea1da85f)"><g clip-path="url(#0735ba1920)"><g transform="matrix(1, 0, 0, 1, 305, 165)"><g clip-path="url(#742cab1428)"><g clip-path="url(#a0c850ddbe)"><g clip-path="url(#e4acab7998)"><path fill="#d9d9d9" d="M 0.359375 0.484375 L 105.941406 0.484375 L 105.941406 106.066406 L 0.359375 106.066406 Z M 0.359375 0.484375 " fill-opacity="1" fill-rule="nonzero"/></g></g></g></g><path stroke-linecap="butt" transform="matrix(0.748806, 0, 0, 0.748806, 305.35882, 165.48607)" fill="none" stroke-linejoin="miter" d="M 26.000477 -0.00226337 L 115.001577 -0.00226337 C 129.357771 -0.00226337 141.001313 11.641278 141.001313 25.997472 L 141.001313 114.998572 C 141.001313 129.359983 129.357771 140.998307 115.001577 140.998307 L 26.000477 140.998307 C 11.639066 140.998307 0.000741656 129.359983 0.000741656 114.998572 L 0.000741656 25.997472 C 0.000741656 11.641278 11.639066 -0.00226337 26.000477 -0.00226337 Z M 26.000477 -0.00226337 " stroke="#545454" stroke-width="8" stroke-opacity="1" stroke-miterlimit="4"/></g></g><g fill="#545454" fill-opacity="1"><g transform="translate(331.344717, 223.144109)"><g><path d="M 1 0 L 1 -11.625 L 4.625 -11.625 L 6.515625 -6.265625 C 6.597656 -6.015625 6.691406 -5.695312 6.796875 -5.3125 C 6.898438 -4.925781 7.003906 -4.507812 7.109375 -4.0625 C 7.210938 -3.625 7.3125 -3.195312 7.40625 -2.78125 C 7.5 -2.375 7.578125 -2.019531 7.640625 -1.71875 L 7.140625 -1.71875 C 7.203125 -2.007812 7.273438 -2.359375 7.359375 -2.765625 C 7.453125 -3.179688 7.550781 -3.609375 7.65625 -4.046875 C 7.769531 -4.492188 7.875 -4.910156 7.96875 -5.296875 C 8.070312 -5.691406 8.164062 -6.015625 8.25 -6.265625 L 10.109375 -11.625 L 13.734375 -11.625 L 13.734375 0 L 11.359375 0 L 11.359375 -5.484375 C 11.359375 -5.742188 11.359375 -6.0625 11.359375 -6.4375 C 11.367188 -6.8125 11.378906 -7.210938 11.390625 -7.640625 C 11.410156 -8.066406 11.425781 -8.5 11.4375 -8.9375 C 11.445312 -9.382812 11.453125 -9.800781 11.453125 -10.1875 L 11.640625 -10.1875 C 11.535156 -9.757812 11.421875 -9.316406 11.296875 -8.859375 C 11.171875 -8.410156 11.046875 -7.972656 10.921875 -7.546875 C 10.804688 -7.117188 10.691406 -6.726562 10.578125 -6.375 C 10.472656 -6.019531 10.382812 -5.722656 10.3125 -5.484375 L 8.375 0 L 6.375 0 L 4.421875 -5.484375 C 4.335938 -5.722656 4.242188 -6.019531 4.140625 -6.375 C 4.035156 -6.726562 3.921875 -7.113281 3.796875 -7.53125 C 3.671875 -7.957031 3.546875 -8.394531 3.421875 -8.84375 C 3.296875 -9.300781 3.175781 -9.75 3.0625 -10.1875 L 3.28125 -10.1875 C 3.28125 -9.8125 3.285156 -9.40625 3.296875 -8.96875 C 3.304688 -8.53125 3.316406 -8.09375 3.328125 -7.65625 C 3.335938 -7.226562 3.347656 -6.820312 3.359375 -6.4375 C 3.367188 -6.0625 3.375 -5.742188 3.375 -5.484375 L 3.375 0 Z M 1 0 "/></g></g></g><g fill="#545454" fill-opacity="1"><g transform="translate(346.091034, 223.144109)"><g><path d="M 3.390625 -11.625 L 3.390625 0 L 1 0 L 1 -11.625 Z M 3.390625 -11.625 "/></g></g></g><g fill="#545454" fill-opacity="1"><g transform="translate(350.496998, 223.144109)"><g><path d="M 6.09375 0.15625 C 5.0625 0.15625 4.132812 -0.078125 3.3125 -0.546875 C 2.5 -1.015625 1.851562 -1.691406 1.375 -2.578125 C 0.90625 -3.472656 0.671875 -4.546875 0.671875 -5.796875 C 0.671875 -7.054688 0.90625 -8.128906 1.375 -9.015625 C 1.851562 -9.910156 2.503906 -10.59375 3.328125 -11.0625 C 4.148438 -11.539062 5.070312 -11.78125 6.09375 -11.78125 C 6.757812 -11.78125 7.378906 -11.6875 7.953125 -11.5 C 8.523438 -11.3125 9.03125 -11.035156 9.46875 -10.671875 C 9.914062 -10.316406 10.28125 -9.878906 10.5625 -9.359375 C 10.851562 -8.847656 11.039062 -8.269531 11.125 -7.625 L 8.71875 -7.625 C 8.65625 -7.9375 8.546875 -8.21875 8.390625 -8.46875 C 8.242188 -8.726562 8.0625 -8.945312 7.84375 -9.125 C 7.625 -9.300781 7.367188 -9.4375 7.078125 -9.53125 C 6.796875 -9.625 6.484375 -9.671875 6.140625 -9.671875 C 5.523438 -9.671875 4.988281 -9.515625 4.53125 -9.203125 C 4.070312 -8.898438 3.71875 -8.460938 3.46875 -7.890625 C 3.21875 -7.316406 3.09375 -6.617188 3.09375 -5.796875 C 3.09375 -4.972656 3.21875 -4.273438 3.46875 -3.703125 C 3.726562 -3.128906 4.082031 -2.691406 4.53125 -2.390625 C 4.988281 -2.097656 5.523438 -1.953125 6.140625 -1.953125 C 6.472656 -1.953125 6.78125 -2 7.0625 -2.09375 C 7.351562 -2.1875 7.609375 -2.316406 7.828125 -2.484375 C 8.054688 -2.660156 8.242188 -2.875 8.390625 -3.125 C 8.546875 -3.382812 8.65625 -3.675781 8.71875 -4 L 11.140625 -4 C 11.066406 -3.4375 10.894531 -2.90625 10.625 -2.40625 C 10.363281 -1.90625 10.015625 -1.457031 9.578125 -1.0625 C 9.148438 -0.675781 8.644531 -0.375 8.0625 -0.15625 C 7.476562 0.0507812 6.820312 0.15625 6.09375 0.15625 Z M 6.09375 0.15625 "/></g></g></g><g fill="#545454" fill-opacity="1"><g transform="translate(362.264419, 223.144109)"><g><path d="M 1 0 L 1 -11.625 L 5.5625 -11.625 C 6.445312 -11.625 7.195312 -11.46875 7.8125 -11.15625 C 8.4375 -10.84375 8.914062 -10.398438 9.25 -9.828125 C 9.582031 -9.265625 9.75 -8.597656 9.75 -7.828125 C 9.75 -7.066406 9.578125 -6.40625 9.234375 -5.84375 C 8.898438 -5.289062 8.414062 -4.863281 7.78125 -4.5625 C 7.144531 -4.269531 6.378906 -4.125 5.484375 -4.125 L 2.421875 -4.125 L 2.421875 -6.046875 L 5.203125 -6.046875 C 5.671875 -6.046875 6.0625 -6.113281 6.375 -6.25 C 6.6875 -6.394531 6.921875 -6.597656 7.078125 -6.859375 C 7.234375 -7.128906 7.3125 -7.453125 7.3125 -7.828125 C 7.3125 -8.210938 7.234375 -8.539062 7.078125 -8.8125 C 6.921875 -9.082031 6.6875 -9.285156 6.375 -9.421875 C 6.0625 -9.566406 5.664062 -9.640625 5.1875 -9.640625 L 3.390625 -9.640625 L 3.390625 0 Z M 7.5 0 L 4.703125 -5.28125 L 7.28125 -5.28125 L 10.125 0 Z M 7.5 0 "/></g></g></g><g fill="#545454" fill-opacity="1"><g transform="translate(372.721739, 223.144109)"><g><path d="M 6.109375 0.15625 C 5.078125 0.15625 4.148438 -0.078125 3.328125 -0.546875 C 2.515625 -1.015625 1.867188 -1.691406 1.390625 -2.578125 C 0.910156 -3.472656 0.671875 -4.546875 0.671875 -5.796875 C 0.671875 -7.054688 0.910156 -8.128906 1.390625 -9.015625 C 1.867188 -9.910156 2.515625 -10.59375 3.328125 -11.0625 C 4.148438 -11.539062 5.078125 -11.78125 6.109375 -11.78125 C 7.140625 -11.78125 8.0625 -11.539062 8.875 -11.0625 C 9.695312 -10.59375 10.347656 -9.910156 10.828125 -9.015625 C 11.304688 -8.128906 11.546875 -7.054688 11.546875 -5.796875 C 11.546875 -4.546875 11.304688 -3.472656 10.828125 -2.578125 C 10.347656 -1.691406 9.695312 -1.015625 8.875 -0.546875 C 8.0625 -0.078125 7.140625 0.15625 6.109375 0.15625 Z M 6.109375 -1.953125 C 6.710938 -1.953125 7.238281 -2.097656 7.6875 -2.390625 C 8.144531 -2.691406 8.5 -3.128906 8.75 -3.703125 C 9 -4.273438 9.125 -4.972656 9.125 -5.796875 C 9.125 -6.628906 9 -7.332031 8.75 -7.90625 C 8.5 -8.488281 8.144531 -8.925781 7.6875 -9.21875 C 7.238281 -9.519531 6.710938 -9.671875 6.109375 -9.671875 C 5.515625 -9.671875 4.988281 -9.519531 4.53125 -9.21875 C 4.082031 -8.914062 3.726562 -8.476562 3.46875 -7.90625 C 3.21875 -7.332031 3.09375 -6.628906 3.09375 -5.796875 C 3.09375 -4.972656 3.21875 -4.273438 3.46875 -3.703125 C 3.726562 -3.128906 4.082031 -2.691406 4.53125 -2.390625 C 4.988281 -2.097656 5.515625 -1.953125 6.109375 -1.953125 Z M 6.109375 -1.953125 "/></g></g></g><g clip-path="url(#6dc568880b)"><g clip-path="url(#78a173659a)"><g transform="matrix(1, 0, 0, 1, 523, 165)"><g clip-path="url(#60a58e2678)"><g clip-path="url(#83cbf84bfb)"><g clip-path="url(#125aac8fd8)"><path fill="#c2ffe1" d="M 0.425781 0.484375 L 124.15625 0.484375 L 124.15625 106.066406 L 0.425781 106.066406 Z M 0.425781 0.484375 " fill-opacity="1" fill-rule="nonzero"/></g></g></g></g></g></g><g clip-path="url(#2ea5fdb7ac)"><g clip-path="url(#712e9dc705)"><path stroke-linecap="butt" transform="matrix(0.748806, 0, 0, 0.748806, 523.427648, 165.48607)" fill="none" stroke-linejoin="miter" d="M 26.00246 -0.00226337 L 139.000105 -0.00226337 C 153.361516 -0.00226337 164.99984 11.641278 164.99984 25.997472 L 164.99984 114.998572 C 164.99984 129.359983 153.361516 140.998307 139.000105 140.998307 L 26.00246 140.998307 C 11.641049 140.998307 -0.00249241 129.359983 -0.00249241 114.998572 L -0.00249241 25.997472 C -0.00249241 11.641278 11.641049 -0.00226337 26.00246 -0.00226337 Z M 26.00246 -0.00226337 " stroke="#545454" stroke-width="8" stroke-opacity="1" stroke-miterlimit="4"/></g></g><g fill="#545454" fill-opacity="1"><g transform="translate(552.537469, 212.660829)"><g><path d="M 5.296875 0.171875 C 4.359375 0.171875 3.539062 0.0234375 2.84375 -0.265625 C 2.15625 -0.554688 1.617188 -0.984375 1.234375 -1.546875 C 0.847656 -2.117188 0.648438 -2.820312 0.640625 -3.65625 L 2.953125 -3.65625 C 2.972656 -3.257812 3.082031 -2.921875 3.28125 -2.640625 C 3.488281 -2.367188 3.765625 -2.164062 4.109375 -2.03125 C 4.453125 -1.894531 4.84375 -1.828125 5.28125 -1.828125 C 5.707031 -1.828125 6.082031 -1.890625 6.40625 -2.015625 C 6.726562 -2.140625 6.976562 -2.3125 7.15625 -2.53125 C 7.332031 -2.757812 7.421875 -3.019531 7.421875 -3.3125 C 7.421875 -3.570312 7.34375 -3.789062 7.1875 -3.96875 C 7.03125 -4.15625 6.800781 -4.3125 6.5 -4.4375 C 6.207031 -4.570312 5.835938 -4.6875 5.390625 -4.78125 L 4.125 -5.09375 C 3.113281 -5.332031 2.328125 -5.710938 1.765625 -6.234375 C 1.203125 -6.753906 0.921875 -7.429688 0.921875 -8.265625 C 0.921875 -8.972656 1.109375 -9.585938 1.484375 -10.109375 C 1.867188 -10.640625 2.390625 -11.050781 3.046875 -11.34375 C 3.703125 -11.632812 4.457031 -11.78125 5.3125 -11.78125 C 6.175781 -11.78125 6.925781 -11.628906 7.5625 -11.328125 C 8.207031 -11.035156 8.707031 -10.625 9.0625 -10.09375 C 9.425781 -9.5625 9.613281 -8.945312 9.625 -8.25 L 7.34375 -8.25 C 7.300781 -8.726562 7.097656 -9.101562 6.734375 -9.375 C 6.367188 -9.644531 5.890625 -9.78125 5.296875 -9.78125 C 4.890625 -9.78125 4.539062 -9.722656 4.25 -9.609375 C 3.96875 -9.492188 3.75 -9.332031 3.59375 -9.125 C 3.4375 -8.914062 3.359375 -8.679688 3.359375 -8.421875 C 3.359375 -8.140625 3.441406 -7.90625 3.609375 -7.71875 C 3.773438 -7.539062 4 -7.390625 4.28125 -7.265625 C 4.570312 -7.148438 4.894531 -7.050781 5.25 -6.96875 L 6.3125 -6.703125 C 6.832031 -6.585938 7.304688 -6.4375 7.734375 -6.25 C 8.160156 -6.0625 8.53125 -5.832031 8.84375 -5.5625 C 9.15625 -5.289062 9.394531 -4.96875 9.5625 -4.59375 C 9.726562 -4.226562 9.8125 -3.8125 9.8125 -3.34375 C 9.8125 -2.625 9.628906 -2 9.265625 -1.46875 C 8.910156 -0.945312 8.394531 -0.539062 7.71875 -0.25 C 7.050781 0.03125 6.242188 0.171875 5.296875 0.171875 Z M 5.296875 0.171875 "/></g></g></g><g fill="#545454" fill-opacity="1"><g transform="translate(562.986997, 212.660829)"><g><path d="M 1 0 L 1 -11.625 L 8.90625 -11.625 L 8.90625 -9.625 L 3.390625 -9.625 L 3.390625 -6.84375 L 8.484375 -6.84375 L 8.484375 -4.890625 L 3.390625 -4.890625 L 3.390625 -2 L 8.921875 -2 L 8.921875 0 Z M 1 0 "/></g></g></g><g fill="#545454" fill-opacity="1"><g transform="translate(572.687902, 212.660829)"><g><path d="M 1 0 L 1 -11.625 L 3.640625 -11.625 L 7.328125 -5.71875 C 7.492188 -5.445312 7.671875 -5.140625 7.859375 -4.796875 C 8.046875 -4.453125 8.238281 -4.070312 8.4375 -3.65625 C 8.632812 -3.25 8.832031 -2.800781 9.03125 -2.3125 L 8.78125 -2.171875 C 8.75 -2.585938 8.71875 -3.035156 8.6875 -3.515625 C 8.664062 -3.992188 8.644531 -4.453125 8.625 -4.890625 C 8.613281 -5.335938 8.609375 -5.707031 8.609375 -6 L 8.609375 -11.625 L 11.03125 -11.625 L 11.03125 0 L 8.390625 0 L 5.046875 -5.34375 C 4.828125 -5.707031 4.609375 -6.070312 4.390625 -6.4375 C 4.179688 -6.8125 3.960938 -7.226562 3.734375 -7.6875 C 3.503906 -8.144531 3.238281 -8.675781 2.9375 -9.28125 L 3.265625 -9.34375 C 3.296875 -8.78125 3.320312 -8.242188 3.34375 -7.734375 C 3.375 -7.222656 3.394531 -6.757812 3.40625 -6.34375 C 3.425781 -5.9375 3.4375 -5.601562 3.4375 -5.34375 L 3.4375 0 Z M 1 0 "/></g></g></g><g fill="#545454" fill-opacity="1"><g transform="translate(584.728253, 212.660829)"><g><path d="M 5.296875 0.171875 C 4.359375 0.171875 3.539062 0.0234375 2.84375 -0.265625 C 2.15625 -0.554688 1.617188 -0.984375 1.234375 -1.546875 C 0.847656 -2.117188 0.648438 -2.820312 0.640625 -3.65625 L 2.953125 -3.65625 C 2.972656 -3.257812 3.082031 -2.921875 3.28125 -2.640625 C 3.488281 -2.367188 3.765625 -2.164062 4.109375 -2.03125 C 4.453125 -1.894531 4.84375 -1.828125 5.28125 -1.828125 C 5.707031 -1.828125 6.082031 -1.890625 6.40625 -2.015625 C 6.726562 -2.140625 6.976562 -2.3125 7.15625 -2.53125 C 7.332031 -2.757812 7.421875 -3.019531 7.421875 -3.3125 C 7.421875 -3.570312 7.34375 -3.789062 7.1875 -3.96875 C 7.03125 -4.15625 6.800781 -4.3125 6.5 -4.4375 C 6.207031 -4.570312 5.835938 -4.6875 5.390625 -4.78125 L 4.125 -5.09375 C 3.113281 -5.332031 2.328125 -5.710938 1.765625 -6.234375 C 1.203125 -6.753906 0.921875 -7.429688 0.921875 -8.265625 C 0.921875 -8.972656 1.109375 -9.585938 1.484375 -10.109375 C 1.867188 -10.640625 2.390625 -11.050781 3.046875 -11.34375 C 3.703125 -11.632812 4.457031 -11.78125 5.3125 -11.78125 C 6.175781 -11.78125 6.925781 -11.628906 7.5625 -11.328125 C 8.207031 -11.035156 8.707031 -10.625 9.0625 -10.09375 C 9.425781 -9.5625 9.613281 -8.945312 9.625 -8.25 L 7.34375 -8.25 C 7.300781 -8.726562 7.097656 -9.101562 6.734375 -9.375 C 6.367188 -9.644531 5.890625 -9.78125 5.296875 -9.78125 C 4.890625 -9.78125 4.539062 -9.722656 4.25 -9.609375 C 3.96875 -9.492188 3.75 -9.332031 3.59375 -9.125 C 3.4375 -8.914062 3.359375 -8.679688 3.359375 -8.421875 C 3.359375 -8.140625 3.441406 -7.90625 3.609375 -7.71875 C 3.773438 -7.539062 4 -7.390625 4.28125 -7.265625 C 4.570312 -7.148438 4.894531 -7.050781 5.25 -6.96875 L 6.3125 -6.703125 C 6.832031 -6.585938 7.304688 -6.4375 7.734375 -6.25 C 8.160156 -6.0625 8.53125 -5.832031 8.84375 -5.5625 C 9.15625 -5.289062 9.394531 -4.96875 9.5625 -4.59375 C 9.726562 -4.226562 9.8125 -3.8125 9.8125 -3.34375 C 9.8125 -2.625 9.628906 -2 9.265625 -1.46875 C 8.910156 -0.945312 8.394531 -0.539062 7.71875 -0.25 C 7.050781 0.03125 6.242188 0.171875 5.296875 0.171875 Z M 5.296875 0.171875 "/></g></g></g><g fill="#545454" fill-opacity="1"><g transform="translate(595.177781, 212.660829)"><g><path d="M 6.109375 0.15625 C 5.078125 0.15625 4.148438 -0.078125 3.328125 -0.546875 C 2.515625 -1.015625 1.867188 -1.691406 1.390625 -2.578125 C 0.910156 -3.472656 0.671875 -4.546875 0.671875 -5.796875 C 0.671875 -7.054688 0.910156 -8.128906 1.390625 -9.015625 C 1.867188 -9.910156 2.515625 -10.59375 3.328125 -11.0625 C 4.148438 -11.539062 5.078125 -11.78125 6.109375 -11.78125 C 7.140625 -11.78125 8.0625 -11.539062 8.875 -11.0625 C 9.695312 -10.59375 10.347656 -9.910156 10.828125 -9.015625 C 11.304688 -8.128906 11.546875 -7.054688 11.546875 -5.796875 C 11.546875 -4.546875 11.304688 -3.472656 10.828125 -2.578125 C 10.347656 -1.691406 9.695312 -1.015625 8.875 -0.546875 C 8.0625 -0.078125 7.140625 0.15625 6.109375 0.15625 Z M 6.109375 -1.953125 C 6.710938 -1.953125 7.238281 -2.097656 7.6875 -2.390625 C 8.144531 -2.691406 8.5 -3.128906 8.75 -3.703125 C 9 -4.273438 9.125 -4.972656 9.125 -5.796875 C 9.125 -6.628906 9 -7.332031 8.75 -7.90625 C 8.5 -8.488281 8.144531 -8.925781 7.6875 -9.21875 C 7.238281 -9.519531 6.710938 -9.671875 6.109375 -9.671875 C 5.515625 -9.671875 4.988281 -9.519531 4.53125 -9.21875 C 4.082031 -8.914062 3.726562 -8.476562 3.46875 -7.90625 C 3.21875 -7.332031 3.09375 -6.628906 3.09375 -5.796875 C 3.09375 -4.972656 3.21875 -4.273438 3.46875 -3.703125 C 3.726562 -3.128906 4.082031 -2.691406 4.53125 -2.390625 C 4.988281 -2.097656 5.515625 -1.953125 6.109375 -1.953125 Z M 6.109375 -1.953125 "/></g></g></g><g fill="#545454" fill-opacity="1"><g transform="translate(607.397496, 212.660829)"><g><path d="M 1 0 L 1 -11.625 L 5.5625 -11.625 C 6.445312 -11.625 7.195312 -11.46875 7.8125 -11.15625 C 8.4375 -10.84375 8.914062 -10.398438 9.25 -9.828125 C 9.582031 -9.265625 9.75 -8.597656 9.75 -7.828125 C 9.75 -7.066406 9.578125 -6.40625 9.234375 -5.84375 C 8.898438 -5.289062 8.414062 -4.863281 7.78125 -4.5625 C 7.144531 -4.269531 6.378906 -4.125 5.484375 -4.125 L 2.421875 -4.125 L 2.421875 -6.046875 L 5.203125 -6.046875 C 5.671875 -6.046875 6.0625 -6.113281 6.375 -6.25 C 6.6875 -6.394531 6.921875 -6.597656 7.078125 -6.859375 C 7.234375 -7.128906 7.3125 -7.453125 7.3125 -7.828125 C 7.3125 -8.210938 7.234375 -8.539062 7.078125 -8.8125 C 6.921875 -9.082031 6.6875 -9.285156 6.375 -9.421875 C 6.0625 -9.566406 5.664062 -9.640625 5.1875 -9.640625 L 3.390625 -9.640625 L 3.390625 0 Z M 7.5 0 L 4.703125 -5.28125 L 7.28125 -5.28125 L 10.125 0 Z M 7.5 0 "/></g></g></g><g fill="#545454" fill-opacity="1"><g transform="translate(562.552745, 234.376194)"><g><path d="M 0.53125 -9.625 L 0.53125 -11.625 L 10.015625 -11.625 L 10.015625 -9.625 L 6.46875 -9.625 L 6.46875 0 L 4.078125 0 L 4.078125 -9.625 Z M 0.53125 -9.625 "/></g></g></g><g fill="#545454" fill-opacity="1"><g transform="translate(573.103655, 234.376194)"><g><path d="M 1 0 L 1 -11.625 L 8.90625 -11.625 L 8.90625 -9.625 L 3.390625 -9.625 L 3.390625 -6.84375 L 8.484375 -6.84375 L 8.484375 -4.890625 L 3.390625 -4.890625 L 3.390625 -2 L 8.921875 -2 L 8.921875 0 Z M 1 0 "/></g></g></g><g fill="#545454" fill-opacity="1"><g transform="translate(582.80456, 234.376194)"><g><path d="M 1 0 L 1 -11.625 L 4.625 -11.625 L 6.515625 -6.265625 C 6.597656 -6.015625 6.691406 -5.695312 6.796875 -5.3125 C 6.898438 -4.925781 7.003906 -4.507812 7.109375 -4.0625 C 7.210938 -3.625 7.3125 -3.195312 7.40625 -2.78125 C 7.5 -2.375 7.578125 -2.019531 7.640625 -1.71875 L 7.140625 -1.71875 C 7.203125 -2.007812 7.273438 -2.359375 7.359375 -2.765625 C 7.453125 -3.179688 7.550781 -3.609375 7.65625 -4.046875 C 7.769531 -4.492188 7.875 -4.910156 7.96875 -5.296875 C 8.070312 -5.691406 8.164062 -6.015625 8.25 -6.265625 L 10.109375 -11.625 L 13.734375 -11.625 L 13.734375 0 L 11.359375 0 L 11.359375 -5.484375 C 11.359375 -5.742188 11.359375 -6.0625 11.359375 -6.4375 C 11.367188 -6.8125 11.378906 -7.210938 11.390625 -7.640625 C 11.410156 -8.066406 11.425781 -8.5 11.4375 -8.9375 C 11.445312 -9.382812 11.453125 -9.800781 11.453125 -10.1875 L 11.640625 -10.1875 C 11.535156 -9.757812 11.421875 -9.316406 11.296875 -8.859375 C 11.171875 -8.410156 11.046875 -7.972656 10.921875 -7.546875 C 10.804688 -7.117188 10.691406 -6.726562 10.578125 -6.375 C 10.472656 -6.019531 10.382812 -5.722656 10.3125 -5.484375 L 8.375 0 L 6.375 0 L 4.421875 -5.484375 C 4.335938 -5.722656 4.242188 -6.019531 4.140625 -6.375 C 4.035156 -6.726562 3.921875 -7.113281 3.796875 -7.53125 C 3.671875 -7.957031 3.546875 -8.394531 3.421875 -8.84375 C 3.296875 -9.300781 3.175781 -9.75 3.0625 -10.1875 L 3.28125 -10.1875 C 3.28125 -9.8125 3.285156 -9.40625 3.296875 -8.96875 C 3.304688 -8.53125 3.316406 -8.09375 3.328125 -7.65625 C 3.335938 -7.226562 3.347656 -6.820312 3.359375 -6.4375 C 3.367188 -6.0625 3.375 -5.742188 3.375 -5.484375 L 3.375 0 Z M 1 0 "/></g></g></g><g fill="#545454" fill-opacity="1"><g transform="translate(597.550877, 234.376194)"><g><path d="M 1 0 L 1 -11.625 L 5.546875 -11.625 C 6.429688 -11.625 7.179688 -11.457031 7.796875 -11.125 C 8.421875 -10.789062 8.898438 -10.332031 9.234375 -9.75 C 9.566406 -9.164062 9.734375 -8.488281 9.734375 -7.71875 C 9.734375 -6.945312 9.5625 -6.269531 9.21875 -5.6875 C 8.882812 -5.101562 8.40625 -4.648438 7.78125 -4.328125 C 7.15625 -4.003906 6.394531 -3.84375 5.5 -3.84375 L 2.515625 -3.84375 L 2.515625 -5.78125 L 5.1875 -5.78125 C 5.65625 -5.78125 6.046875 -5.859375 6.359375 -6.015625 C 6.671875 -6.179688 6.90625 -6.410156 7.0625 -6.703125 C 7.21875 -6.992188 7.296875 -7.332031 7.296875 -7.71875 C 7.296875 -8.101562 7.21875 -8.4375 7.0625 -8.71875 C 6.90625 -9.007812 6.671875 -9.234375 6.359375 -9.390625 C 6.046875 -9.554688 5.648438 -9.640625 5.171875 -9.640625 L 3.390625 -9.640625 L 3.390625 0 Z M 1 0 "/></g></g></g><path stroke-linecap="butt" transform="matrix(0.748806, 0, 0, 0.748806, 410.940426, 216.77926)" fill="none" stroke-linejoin="miter" d="M 10.997987 2.00063 L 150.219684 2.00063 " stroke="#545454" stroke-width="4" stroke-opacity="1" stroke-miterlimit="4"/><path stroke-linecap="round" transform="matrix(0.748806, 0, 0, 0.748806, 410.940426, 216.77926)" fill-opacity="1" fill="#545454" fill-rule="nonzero" stroke-linejoin="round" d="M 10.001609 -3.998506 L 1.999283 2.00063 L 10.001609 7.999767 Z M 10.001609 -3.998506 " stroke="#545454" stroke-width="4" stroke-opacity="1" stroke-miterlimit="4"/><g clip-path="url(#27e53fa58c)"><g clip-path="url(#3cecac6d3c)"><g transform="matrix(1, 0, 0, 1, 523, 330)"><g clip-path="url(#e72a33d862)"><g clip-path="url(#55befbd40f)"><g clip-path="url(#2b81a294d9)"><path fill="#c2ffe1" d="M 0.425781 0.972656 L 124.15625 0.972656 L 124.15625 106.554688 L 0.425781 106.554688 Z M 0.425781 0.972656 " fill-opacity="1" fill-rule="nonzero"/></g></g></g></g></g></g><g clip-path="url(#f512ebf673)"><g clip-path="url(#9f202fb694)"><path stroke-linecap="butt" transform="matrix(0.748806, 0, 0, 0.748806, 523.427648, 330.97213)" fill="none" stroke-linejoin="miter" d="M 26.00246 0.000703226 L 139.000105 0.000703226 C 153.361516 0.000703226 164.99984 11.639028 164.99984 26.000439 L 164.99984 115.001539 C 164.99984 129.357733 153.361516 141.001274 139.000105 141.001274 L 26.00246 141.001274 C 11.641049 141.001274 -0.00249241 129.357733 -0.00249241 115.001539 L -0.00249241 26.000439 C -0.00249241 11.639028 11.641049 0.000703226 26.00246 0.000703226 Z M 26.00246 0.000703226 " stroke="#545454" stroke-width="8" stroke-opacity="1" stroke-miterlimit="4"/></g></g><g fill="#545454" fill-opacity="1"><g transform="translate(533.864127, 388.630169)"><g><path d="M 1 0 L 1 -11.625 L 5.625 -11.625 C 6.476562 -11.625 7.1875 -11.492188 7.75 -11.234375 C 8.320312 -10.984375 8.753906 -10.628906 9.046875 -10.171875 C 9.335938 -9.722656 9.484375 -9.207031 9.484375 -8.625 C 9.484375 -8.175781 9.390625 -7.78125 9.203125 -7.4375 C 9.023438 -7.09375 8.78125 -6.8125 8.46875 -6.59375 C 8.15625 -6.375 7.796875 -6.21875 7.390625 -6.125 L 7.390625 -6.03125 C 7.835938 -6.007812 8.253906 -5.878906 8.640625 -5.640625 C 9.023438 -5.410156 9.332031 -5.085938 9.5625 -4.671875 C 9.800781 -4.265625 9.921875 -3.78125 9.921875 -3.21875 C 9.921875 -2.601562 9.769531 -2.050781 9.46875 -1.5625 C 9.164062 -1.070312 8.71875 -0.6875 8.125 -0.40625 C 7.53125 -0.132812 6.796875 0 5.921875 0 Z M 3.390625 -1.9375 L 5.484375 -1.9375 C 6.160156 -1.9375 6.660156 -2.070312 6.984375 -2.34375 C 7.316406 -2.613281 7.484375 -2.972656 7.484375 -3.421875 C 7.484375 -3.753906 7.40625 -4.039062 7.25 -4.28125 C 7.09375 -4.53125 6.867188 -4.722656 6.578125 -4.859375 C 6.285156 -5.003906 5.9375 -5.078125 5.53125 -5.078125 L 3.390625 -5.078125 Z M 3.390625 -6.75 L 5.3125 -6.75 C 5.65625 -6.75 5.957031 -6.804688 6.21875 -6.921875 C 6.488281 -7.046875 6.695312 -7.222656 6.84375 -7.453125 C 7 -7.679688 7.078125 -7.945312 7.078125 -8.25 C 7.078125 -8.675781 6.925781 -9.019531 6.625 -9.28125 C 6.320312 -9.550781 5.894531 -9.6875 5.34375 -9.6875 L 3.390625 -9.6875 Z M 3.390625 -6.75 "/></g></g></g><g fill="#545454" fill-opacity="1"><g transform="translate(544.368248, 388.630169)"><g><path d="M 0.3125 0 L 4.3125 -11.625 L 7.421875 -11.625 L 11.5 0 L 8.84375 0 L 6.984375 -5.609375 C 6.765625 -6.335938 6.535156 -7.125 6.296875 -7.96875 C 6.066406 -8.8125 5.820312 -9.742188 5.5625 -10.765625 L 6.109375 -10.765625 C 5.859375 -9.742188 5.625 -8.804688 5.40625 -7.953125 C 5.1875 -7.109375 4.96875 -6.328125 4.75 -5.609375 L 2.9375 0 Z M 2.8125 -2.65625 L 2.8125 -4.53125 L 8.984375 -4.53125 L 8.984375 -2.65625 Z M 2.8125 -2.65625 "/></g></g></g><g fill="#545454" fill-opacity="1"><g transform="translate(556.174654, 388.630169)"><g><path d="M 1 0 L 1 -11.625 L 5.5625 -11.625 C 6.445312 -11.625 7.195312 -11.46875 7.8125 -11.15625 C 8.4375 -10.84375 8.914062 -10.398438 9.25 -9.828125 C 9.582031 -9.265625 9.75 -8.597656 9.75 -7.828125 C 9.75 -7.066406 9.578125 -6.40625 9.234375 -5.84375 C 8.898438 -5.289062 8.414062 -4.863281 7.78125 -4.5625 C 7.144531 -4.269531 6.378906 -4.125 5.484375 -4.125 L 2.421875 -4.125 L 2.421875 -6.046875 L 5.203125 -6.046875 C 5.671875 -6.046875 6.0625 -6.113281 6.375 -6.25 C 6.6875 -6.394531 6.921875 -6.597656 7.078125 -6.859375 C 7.234375 -7.128906 7.3125 -7.453125 7.3125 -7.828125 C 7.3125 -8.210938 7.234375 -8.539062 7.078125 -8.8125 C 6.921875 -9.082031 6.6875 -9.285156 6.375 -9.421875 C 6.0625 -9.566406 5.664062 -9.640625 5.1875 -9.640625 L 3.390625 -9.640625 L 3.390625 0 Z M 7.5 0 L 4.703125 -5.28125 L 7.28125 -5.28125 L 10.125 0 Z M 7.5 0 "/></g></g></g><g fill="#545454" fill-opacity="1"><g transform="translate(566.631975, 388.630169)"><g><path d="M 6.109375 0.15625 C 5.078125 0.15625 4.148438 -0.078125 3.328125 -0.546875 C 2.515625 -1.015625 1.867188 -1.691406 1.390625 -2.578125 C 0.910156 -3.472656 0.671875 -4.546875 0.671875 -5.796875 C 0.671875 -7.054688 0.910156 -8.128906 1.390625 -9.015625 C 1.867188 -9.910156 2.515625 -10.59375 3.328125 -11.0625 C 4.148438 -11.539062 5.078125 -11.78125 6.109375 -11.78125 C 7.140625 -11.78125 8.0625 -11.539062 8.875 -11.0625 C 9.695312 -10.59375 10.347656 -9.910156 10.828125 -9.015625 C 11.304688 -8.128906 11.546875 -7.054688 11.546875 -5.796875 C 11.546875 -4.546875 11.304688 -3.472656 10.828125 -2.578125 C 10.347656 -1.691406 9.695312 -1.015625 8.875 -0.546875 C 8.0625 -0.078125 7.140625 0.15625 6.109375 0.15625 Z M 6.109375 -1.953125 C 6.710938 -1.953125 7.238281 -2.097656 7.6875 -2.390625 C 8.144531 -2.691406 8.5 -3.128906 8.75 -3.703125 C 9 -4.273438 9.125 -4.972656 9.125 -5.796875 C 9.125 -6.628906 9 -7.332031 8.75 -7.90625 C 8.5 -8.488281 8.144531 -8.925781 7.6875 -9.21875 C 7.238281 -9.519531 6.710938 -9.671875 6.109375 -9.671875 C 5.515625 -9.671875 4.988281 -9.519531 4.53125 -9.21875 C 4.082031 -8.914062 3.726562 -8.476562 3.46875 -7.90625 C 3.21875 -7.332031 3.09375 -6.628906 3.09375 -5.796875 C 3.09375 -4.972656 3.21875 -4.273438 3.46875 -3.703125 C 3.726562 -3.128906 4.082031 -2.691406 4.53125 -2.390625 C 4.988281 -2.097656 5.515625 -1.953125 6.109375 -1.953125 Z M 5.25 -12.703125 L 6.390625 -15.140625 L 8.578125 -15.140625 L 6.890625 -12.703125 Z M 5.25 -12.703125 "/></g></g></g><g fill="#545454" fill-opacity="1"><g transform="translate(578.851689, 388.630169)"><g><path d="M 1 0 L 1 -11.625 L 4.625 -11.625 L 6.515625 -6.265625 C 6.597656 -6.015625 6.691406 -5.695312 6.796875 -5.3125 C 6.898438 -4.925781 7.003906 -4.507812 7.109375 -4.0625 C 7.210938 -3.625 7.3125 -3.195312 7.40625 -2.78125 C 7.5 -2.375 7.578125 -2.019531 7.640625 -1.71875 L 7.140625 -1.71875 C 7.203125 -2.007812 7.273438 -2.359375 7.359375 -2.765625 C 7.453125 -3.179688 7.550781 -3.609375 7.65625 -4.046875 C 7.769531 -4.492188 7.875 -4.910156 7.96875 -5.296875 C 8.070312 -5.691406 8.164062 -6.015625 8.25 -6.265625 L 10.109375 -11.625 L 13.734375 -11.625 L 13.734375 0 L 11.359375 0 L 11.359375 -5.484375 C 11.359375 -5.742188 11.359375 -6.0625 11.359375 -6.4375 C 11.367188 -6.8125 11.378906 -7.210938 11.390625 -7.640625 C 11.410156 -8.066406 11.425781 -8.5 11.4375 -8.9375 C 11.445312 -9.382812 11.453125 -9.800781 11.453125 -10.1875 L 11.640625 -10.1875 C 11.535156 -9.757812 11.421875 -9.316406 11.296875 -8.859375 C 11.171875 -8.410156 11.046875 -7.972656 10.921875 -7.546875 C 10.804688 -7.117188 10.691406 -6.726562 10.578125 -6.375 C 10.472656 -6.019531 10.382812 -5.722656 10.3125 -5.484375 L 8.375 0 L 6.375 0 L 4.421875 -5.484375 C 4.335938 -5.722656 4.242188 -6.019531 4.140625 -6.375 C 4.035156 -6.726562 3.921875 -7.113281 3.796875 -7.53125 C 3.671875 -7.957031 3.546875 -8.394531 3.421875 -8.84375 C 3.296875 -9.300781 3.175781 -9.75 3.0625 -10.1875 L 3.28125 -10.1875 C 3.28125 -9.8125 3.285156 -9.40625 3.296875 -8.96875 C 3.304688 -8.53125 3.316406 -8.09375 3.328125 -7.65625 C 3.335938 -7.226562 3.347656 -6.820312 3.359375 -6.4375 C 3.367188 -6.0625 3.375 -5.742188 3.375 -5.484375 L 3.375 0 Z M 1 0 "/></g></g></g><g fill="#545454" fill-opacity="1"><g transform="translate(593.598006, 388.630169)"><g><path d="M 1 0 L 1 -11.625 L 8.90625 -11.625 L 8.90625 -9.625 L 3.390625 -9.625 L 3.390625 -6.84375 L 8.484375 -6.84375 L 8.484375 -4.890625 L 3.390625 -4.890625 L 3.390625 -2 L 8.921875 -2 L 8.921875 0 Z M 1 0 "/></g></g></g><g fill="#545454" fill-opacity="1"><g transform="translate(603.298911, 388.630169)"><g><path d="M 0.53125 -9.625 L 0.53125 -11.625 L 10.015625 -11.625 L 10.015625 -9.625 L 6.46875 -9.625 L 6.46875 0 L 4.078125 0 L 4.078125 -9.625 Z M 0.53125 -9.625 "/></g></g></g><g fill="#545454" fill-opacity="1"><g transform="translate(613.849821, 388.630169)"><g><path d="M 1 0 L 1 -11.625 L 5.5625 -11.625 C 6.445312 -11.625 7.195312 -11.46875 7.8125 -11.15625 C 8.4375 -10.84375 8.914062 -10.398438 9.25 -9.828125 C 9.582031 -9.265625 9.75 -8.597656 9.75 -7.828125 C 9.75 -7.066406 9.578125 -6.40625 9.234375 -5.84375 C 8.898438 -5.289062 8.414062 -4.863281 7.78125 -4.5625 C 7.144531 -4.269531 6.378906 -4.125 5.484375 -4.125 L 2.421875 -4.125 L 2.421875 -6.046875 L 5.203125 -6.046875 C 5.671875 -6.046875 6.0625 -6.113281 6.375 -6.25 C 6.6875 -6.394531 6.921875 -6.597656 7.078125 -6.859375 C 7.234375 -7.128906 7.3125 -7.453125 7.3125 -7.828125 C 7.3125 -8.210938 7.234375 -8.539062 7.078125 -8.8125 C 6.921875 -9.082031 6.6875 -9.285156 6.375 -9.421875 C 6.0625 -9.566406 5.664062 -9.640625 5.1875 -9.640625 L 3.390625 -9.640625 L 3.390625 0 Z M 7.5 0 L 4.703125 -5.28125 L 7.28125 -5.28125 L 10.125 0 Z M 7.5 0 "/></g></g></g><g fill="#545454" fill-opacity="1"><g transform="translate(624.307141, 388.630169)"><g><path d="M 6.109375 0.15625 C 5.078125 0.15625 4.148438 -0.078125 3.328125 -0.546875 C 2.515625 -1.015625 1.867188 -1.691406 1.390625 -2.578125 C 0.910156 -3.472656 0.671875 -4.546875 0.671875 -5.796875 C 0.671875 -7.054688 0.910156 -8.128906 1.390625 -9.015625 C 1.867188 -9.910156 2.515625 -10.59375 3.328125 -11.0625 C 4.148438 -11.539062 5.078125 -11.78125 6.109375 -11.78125 C 7.140625 -11.78125 8.0625 -11.539062 8.875 -11.0625 C 9.695312 -10.59375 10.347656 -9.910156 10.828125 -9.015625 C 11.304688 -8.128906 11.546875 -7.054688 11.546875 -5.796875 C 11.546875 -4.546875 11.304688 -3.472656 10.828125 -2.578125 C 10.347656 -1.691406 9.695312 -1.015625 8.875 -0.546875 C 8.0625 -0.078125 7.140625 0.15625 6.109375 0.15625 Z M 6.109375 -1.953125 C 6.710938 -1.953125 7.238281 -2.097656 7.6875 -2.390625 C 8.144531 -2.691406 8.5 -3.128906 8.75 -3.703125 C 9 -4.273438 9.125 -4.972656 9.125 -5.796875 C 9.125 -6.628906 9 -7.332031 8.75 -7.90625 C 8.5 -8.488281 8.144531 -8.925781 7.6875 -9.21875 C 7.238281 -9.519531 6.710938 -9.671875 6.109375 -9.671875 C 5.515625 -9.671875 4.988281 -9.519531 4.53125 -9.21875 C 4.082031 -8.914062 3.726562 -8.476562 3.46875 -7.90625 C 3.21875 -7.332031 3.09375 -6.628906 3.09375 -5.796875 C 3.09375 -4.972656 3.21875 -4.273438 3.46875 -3.703125 C 3.726562 -3.128906 4.082031 -2.691406 4.53125 -2.390625 C 4.988281 -2.097656 5.515625 -1.953125 6.109375 -1.953125 Z M 6.109375 -1.953125 "/></g></g></g><path stroke-linecap="butt" transform="matrix(0.748806, 0, 0, 0.748806, 410.940426, 216.77926)" fill="none" stroke-linejoin="miter" d="M 10.997987 2.00063 L 26.460109 2.00063 C 30.555172 2.00063 34.488518 3.628222 37.38897 6.528674 C 40.284206 9.42391 41.917014 13.357256 41.917014 17.457536 L 41.917014 199.001835 C 41.917014 212.257318 52.658077 222.99838 65.91356 222.99838 L 150.219684 222.99838 " stroke="#545454" stroke-width="4" stroke-opacity="1" stroke-miterlimit="4"/><path stroke-linecap="round" transform="matrix(0.748806, 0, 0, 0.748806, 410.940426, 216.77926)" fill-opacity="1" fill="#545454" fill-rule="nonzero" stroke-linejoin="round" d="M 10.001609 -3.998506 L 1.999283 2.00063 L 10.001609 7.999767 Z M 10.001609 -3.998506 " stroke="#545454" stroke-width="4" stroke-opacity="1" stroke-miterlimit="4"/><g clip-path="url(#e8ed6b3b65)"><g clip-path="url(#91c3f1b140)"><g transform="matrix(1, 0, 0, 1, 523, -0.000000000000035788)"><g clip-path="url(#7806a1fd35)"><g clip-path="url(#cf023d91c6)"><g clip-path="url(#b0851da2be)"><path fill="#c2ffe1" d="M 0.425781 0 L 124.15625 0 L 124.15625 105.582031 L 0.425781 105.582031 Z M 0.425781 0 " fill-opacity="1" fill-rule="nonzero"/></g></g></g></g></g></g><g clip-path="url(#9723335030)"><g clip-path="url(#c3caa17e06)"><path stroke-linecap="butt" transform="matrix(0.748806, 0, 0, 0.748806, 523.427648, 0.00000998408)" fill="none" stroke-linejoin="miter" d="M 26.00246 -0.0000133333 L 139.000105 -0.0000133333 C 153.361516 -0.0000133333 164.99984 11.638311 164.99984 25.999722 L 164.99984 115.000822 C 164.99984 129.357016 153.361516 141.000558 139.000105 141.000558 L 26.00246 141.000558 C 11.641049 141.000558 -0.00249241 129.357016 -0.00249241 115.000822 L -0.00249241 25.999722 C -0.00249241 11.638311 11.641049 -0.0000133333 26.00246 -0.0000133333 Z M 26.00246 -0.0000133333 " stroke="#545454" stroke-width="8" stroke-opacity="1" stroke-miterlimit="4"/></g></g><g fill="#545454" fill-opacity="1"><g transform="translate(544.242106, 57.658049)"><g><path d="M 1 0 L 1 -11.625 L 3.390625 -11.625 L 3.390625 -6.9375 L 8.421875 -6.9375 L 8.421875 -11.625 L 10.8125 -11.625 L 10.8125 0 L 8.421875 0 L 8.421875 -4.9375 L 3.390625 -4.9375 L 3.390625 0 Z M 1 0 "/></g></g></g><g fill="#545454" fill-opacity="1"><g transform="translate(556.064109, 57.658049)"><g><path d="M 5.796875 0.15625 C 4.828125 0.15625 3.984375 -0.015625 3.265625 -0.359375 C 2.554688 -0.710938 2 -1.207031 1.59375 -1.84375 C 1.195312 -2.488281 1 -3.226562 1 -4.0625 L 1 -11.625 L 3.375 -11.625 L 3.375 -4.265625 C 3.375 -3.816406 3.472656 -3.414062 3.671875 -3.0625 C 3.878906 -2.707031 4.160156 -2.429688 4.515625 -2.234375 C 4.878906 -2.035156 5.304688 -1.9375 5.796875 -1.9375 C 6.285156 -1.9375 6.707031 -2.035156 7.0625 -2.234375 C 7.425781 -2.429688 7.707031 -2.707031 7.90625 -3.0625 C 8.101562 -3.414062 8.203125 -3.816406 8.203125 -4.265625 L 8.203125 -11.625 L 10.59375 -11.625 L 10.59375 -4.0625 C 10.59375 -3.226562 10.390625 -2.488281 9.984375 -1.84375 C 9.585938 -1.207031 9.03125 -0.710938 8.3125 -0.359375 C 7.59375 -0.015625 6.753906 0.15625 5.796875 0.15625 Z M 5.796875 0.15625 "/></g></g></g><g fill="#545454" fill-opacity="1"><g transform="translate(567.652168, 57.658049)"><g><path d="M 1 0 L 1 -11.625 L 4.625 -11.625 L 6.515625 -6.265625 C 6.597656 -6.015625 6.691406 -5.695312 6.796875 -5.3125 C 6.898438 -4.925781 7.003906 -4.507812 7.109375 -4.0625 C 7.210938 -3.625 7.3125 -3.195312 7.40625 -2.78125 C 7.5 -2.375 7.578125 -2.019531 7.640625 -1.71875 L 7.140625 -1.71875 C 7.203125 -2.007812 7.273438 -2.359375 7.359375 -2.765625 C 7.453125 -3.179688 7.550781 -3.609375 7.65625 -4.046875 C 7.769531 -4.492188 7.875 -4.910156 7.96875 -5.296875 C 8.070312 -5.691406 8.164062 -6.015625 8.25 -6.265625 L 10.109375 -11.625 L 13.734375 -11.625 L 13.734375 0 L 11.359375 0 L 11.359375 -5.484375 C 11.359375 -5.742188 11.359375 -6.0625 11.359375 -6.4375 C 11.367188 -6.8125 11.378906 -7.210938 11.390625 -7.640625 C 11.410156 -8.066406 11.425781 -8.5 11.4375 -8.9375 C 11.445312 -9.382812 11.453125 -9.800781 11.453125 -10.1875 L 11.640625 -10.1875 C 11.535156 -9.757812 11.421875 -9.316406 11.296875 -8.859375 C 11.171875 -8.410156 11.046875 -7.972656 10.921875 -7.546875 C 10.804688 -7.117188 10.691406 -6.726562 10.578125 -6.375 C 10.472656 -6.019531 10.382812 -5.722656 10.3125 -5.484375 L 8.375 0 L 6.375 0 L 4.421875 -5.484375 C 4.335938 -5.722656 4.242188 -6.019531 4.140625 -6.375 C 4.035156 -6.726562 3.921875 -7.113281 3.796875 -7.53125 C 3.671875 -7.957031 3.546875 -8.394531 3.421875 -8.84375 C 3.296875 -9.300781 3.175781 -9.75 3.0625 -10.1875 L 3.28125 -10.1875 C 3.28125 -9.8125 3.285156 -9.40625 3.296875 -8.96875 C 3.304688 -8.53125 3.316406 -8.09375 3.328125 -7.65625 C 3.335938 -7.226562 3.347656 -6.820312 3.359375 -6.4375 C 3.367188 -6.0625 3.375 -5.742188 3.375 -5.484375 L 3.375 0 Z M 1 0 "/></g></g></g><g fill="#545454" fill-opacity="1"><g transform="translate(582.398484, 57.658049)"><g><path d="M 1 0 L 1 -11.625 L 8.90625 -11.625 L 8.90625 -9.625 L 3.390625 -9.625 L 3.390625 -6.84375 L 8.484375 -6.84375 L 8.484375 -4.890625 L 3.390625 -4.890625 L 3.390625 -2 L 8.921875 -2 L 8.921875 0 Z M 1 0 "/></g></g></g><g fill="#545454" fill-opacity="1"><g transform="translate(592.099389, 57.658049)"><g><path d="M 5.09375 0 L 2.09375 0 L 2.09375 -2.046875 L 4.984375 -2.046875 C 5.734375 -2.046875 6.363281 -2.179688 6.875 -2.453125 C 7.382812 -2.722656 7.765625 -3.132812 8.015625 -3.6875 C 8.265625 -4.25 8.390625 -4.957031 8.390625 -5.8125 C 8.390625 -6.664062 8.265625 -7.367188 8.015625 -7.921875 C 7.765625 -8.484375 7.382812 -8.898438 6.875 -9.171875 C 6.375 -9.441406 5.75 -9.578125 5 -9.578125 L 2.03125 -9.578125 L 2.03125 -11.625 L 5.140625 -11.625 C 6.304688 -11.625 7.304688 -11.390625 8.140625 -10.921875 C 8.984375 -10.453125 9.632812 -9.785156 10.09375 -8.921875 C 10.550781 -8.054688 10.78125 -7.019531 10.78125 -5.8125 C 10.78125 -4.601562 10.550781 -3.566406 10.09375 -2.703125 C 9.644531 -1.835938 8.992188 -1.171875 8.140625 -0.703125 C 7.296875 -0.234375 6.28125 0 5.09375 0 Z M 3.390625 -11.625 L 3.390625 0 L 1 0 L 1 -11.625 Z M 3.390625 -11.625 "/></g></g></g><g fill="#545454" fill-opacity="1"><g transform="translate(602.891979, 57.658049)"><g><path d="M 0.3125 0 L 4.3125 -11.625 L 7.421875 -11.625 L 11.5 0 L 8.84375 0 L 6.984375 -5.609375 C 6.765625 -6.335938 6.535156 -7.125 6.296875 -7.96875 C 6.066406 -8.8125 5.820312 -9.742188 5.5625 -10.765625 L 6.109375 -10.765625 C 5.859375 -9.742188 5.625 -8.804688 5.40625 -7.953125 C 5.1875 -7.109375 4.96875 -6.328125 4.75 -5.609375 L 2.9375 0 Z M 2.8125 -2.65625 L 2.8125 -4.53125 L 8.984375 -4.53125 L 8.984375 -2.65625 Z M 2.8125 -2.65625 "/></g></g></g><g fill="#545454" fill-opacity="1"><g transform="translate(614.698386, 57.658049)"><g><path d="M 5.09375 0 L 2.09375 0 L 2.09375 -2.046875 L 4.984375 -2.046875 C 5.734375 -2.046875 6.363281 -2.179688 6.875 -2.453125 C 7.382812 -2.722656 7.765625 -3.132812 8.015625 -3.6875 C 8.265625 -4.25 8.390625 -4.957031 8.390625 -5.8125 C 8.390625 -6.664062 8.265625 -7.367188 8.015625 -7.921875 C 7.765625 -8.484375 7.382812 -8.898438 6.875 -9.171875 C 6.375 -9.441406 5.75 -9.578125 5 -9.578125 L 2.03125 -9.578125 L 2.03125 -11.625 L 5.140625 -11.625 C 6.304688 -11.625 7.304688 -11.390625 8.140625 -10.921875 C 8.984375 -10.453125 9.632812 -9.785156 10.09375 -8.921875 C 10.550781 -8.054688 10.78125 -7.019531 10.78125 -5.8125 C 10.78125 -4.601562 10.550781 -3.566406 10.09375 -2.703125 C 9.644531 -1.835938 8.992188 -1.171875 8.140625 -0.703125 C 7.296875 -0.234375 6.28125 0 5.09375 0 Z M 3.390625 -11.625 L 3.390625 0 L 1 0 L 1 -11.625 Z M 3.390625 -11.625 "/></g></g></g><path stroke-linecap="butt" transform="matrix(0.748806, 0, 0, 0.748806, 410.940426, 51.2932)" fill="none" stroke-linejoin="miter" d="M 10.997987 223.00063 L 26.460109 223.00063 C 30.555172 223.00063 34.488518 221.373039 37.38897 218.472587 C 40.284206 215.572135 41.917014 211.644004 41.917014 207.543725 L 41.917014 25.999426 C 41.917014 12.743943 52.658077 1.997664 65.91356 1.997664 L 150.219684 1.997664 " stroke="#545454" stroke-width="4" stroke-opacity="1" stroke-miterlimit="4"/><path stroke-linecap="round" transform="matrix(0.748806, 0, 0, 0.748806, 410.940426, 51.2932)" fill-opacity="1" fill="#545454" fill-rule="nonzero" stroke-linejoin="round" d="M 10.001609 217.001494 L 1.999283 223.00063 L 10.001609 228.999767 Z M 10.001609 217.001494 " stroke="#545454" stroke-width="4" stroke-opacity="1" stroke-miterlimit="4"/><g clip-path="url(#4b4901ff34)"><g clip-path="url(#d831af936d)"><g transform="matrix(1, 0, 0, 1, 305, -0.000000000000035788)"><g clip-path="url(#56764fea31)"><g clip-path="url(#e35e42b2bd)"><g clip-path="url(#98997ab178)"><path fill="#fff3c2" d="M 0.359375 0 L 105.941406 0 L 105.941406 105.582031 L 0.359375 105.582031 Z M 0.359375 0 " fill-opacity="1" fill-rule="nonzero"/></g></g></g></g><path stroke-linecap="butt" transform="matrix(0.748806, 0, 0, 0.748806, 305.35882, 0.00000998749)" fill="none" stroke-linejoin="miter" d="M 26.000477 -0.0000133379 L 115.001577 -0.0000133379 C 129.357771 -0.0000133379 141.001313 11.638311 141.001313 25.999722 L 141.001313 115.000822 C 141.001313 129.357016 129.357771 141.000558 115.001577 141.000558 L 26.000477 141.000558 C 11.639066 141.000558 0.000741656 129.357016 0.000741656 115.000822 L 0.000741656 25.999722 C 0.000741656 11.638311 11.639066 -0.0000133379 26.000477 -0.0000133379 Z M 26.000477 -0.0000133379 " stroke="#545454" stroke-width="8" stroke-opacity="1" stroke-miterlimit="4"/></g></g><g fill="#545454" fill-opacity="1"><g transform="translate(332.397725, 57.658049)"><g><path d="M 1 0 L 1 -11.625 L 4.625 -11.625 L 6.515625 -6.265625 C 6.597656 -6.015625 6.691406 -5.695312 6.796875 -5.3125 C 6.898438 -4.925781 7.003906 -4.507812 7.109375 -4.0625 C 7.210938 -3.625 7.3125 -3.195312 7.40625 -2.78125 C 7.5 -2.375 7.578125 -2.019531 7.640625 -1.71875 L 7.140625 -1.71875 C 7.203125 -2.007812 7.273438 -2.359375 7.359375 -2.765625 C 7.453125 -3.179688 7.550781 -3.609375 7.65625 -4.046875 C 7.769531 -4.492188 7.875 -4.910156 7.96875 -5.296875 C 8.070312 -5.691406 8.164062 -6.015625 8.25 -6.265625 L 10.109375 -11.625 L 13.734375 -11.625 L 13.734375 0 L 11.359375 0 L 11.359375 -5.484375 C 11.359375 -5.742188 11.359375 -6.0625 11.359375 -6.4375 C 11.367188 -6.8125 11.378906 -7.210938 11.390625 -7.640625 C 11.410156 -8.066406 11.425781 -8.5 11.4375 -8.9375 C 11.445312 -9.382812 11.453125 -9.800781 11.453125 -10.1875 L 11.640625 -10.1875 C 11.535156 -9.757812 11.421875 -9.316406 11.296875 -8.859375 C 11.171875 -8.410156 11.046875 -7.972656 10.921875 -7.546875 C 10.804688 -7.117188 10.691406 -6.726562 10.578125 -6.375 C 10.472656 -6.019531 10.382812 -5.722656 10.3125 -5.484375 L 8.375 0 L 6.375 0 L 4.421875 -5.484375 C 4.335938 -5.722656 4.242188 -6.019531 4.140625 -6.375 C 4.035156 -6.726562 3.921875 -7.113281 3.796875 -7.53125 C 3.671875 -7.957031 3.546875 -8.394531 3.421875 -8.84375 C 3.296875 -9.300781 3.175781 -9.75 3.0625 -10.1875 L 3.28125 -10.1875 C 3.28125 -9.8125 3.285156 -9.40625 3.296875 -8.96875 C 3.304688 -8.53125 3.316406 -8.09375 3.328125 -7.65625 C 3.335938 -7.226562 3.347656 -6.820312 3.359375 -6.4375 C 3.367188 -6.0625 3.375 -5.742188 3.375 -5.484375 L 3.375 0 Z M 1 0 "/></g></g></g><g fill="#545454" fill-opacity="1"><g transform="translate(347.144042, 57.658049)"><g><path d="M 6.109375 0.15625 C 5.078125 0.15625 4.148438 -0.078125 3.328125 -0.546875 C 2.515625 -1.015625 1.867188 -1.691406 1.390625 -2.578125 C 0.910156 -3.472656 0.671875 -4.546875 0.671875 -5.796875 C 0.671875 -7.054688 0.910156 -8.128906 1.390625 -9.015625 C 1.867188 -9.910156 2.515625 -10.59375 3.328125 -11.0625 C 4.148438 -11.539062 5.078125 -11.78125 6.109375 -11.78125 C 7.140625 -11.78125 8.0625 -11.539062 8.875 -11.0625 C 9.695312 -10.59375 10.347656 -9.910156 10.828125 -9.015625 C 11.304688 -8.128906 11.546875 -7.054688 11.546875 -5.796875 C 11.546875 -4.546875 11.304688 -3.472656 10.828125 -2.578125 C 10.347656 -1.691406 9.695312 -1.015625 8.875 -0.546875 C 8.0625 -0.078125 7.140625 0.15625 6.109375 0.15625 Z M 6.109375 -1.953125 C 6.710938 -1.953125 7.238281 -2.097656 7.6875 -2.390625 C 8.144531 -2.691406 8.5 -3.128906 8.75 -3.703125 C 9 -4.273438 9.125 -4.972656 9.125 -5.796875 C 9.125 -6.628906 9 -7.332031 8.75 -7.90625 C 8.5 -8.488281 8.144531 -8.925781 7.6875 -9.21875 C 7.238281 -9.519531 6.710938 -9.671875 6.109375 -9.671875 C 5.515625 -9.671875 4.988281 -9.519531 4.53125 -9.21875 C 4.082031 -8.914062 3.726562 -8.476562 3.46875 -7.90625 C 3.21875 -7.332031 3.09375 -6.628906 3.09375 -5.796875 C 3.09375 -4.972656 3.21875 -4.273438 3.46875 -3.703125 C 3.726562 -3.128906 4.082031 -2.691406 4.53125 -2.390625 C 4.988281 -2.097656 5.515625 -1.953125 6.109375 -1.953125 Z M 5.25 -12.703125 L 6.390625 -15.140625 L 8.578125 -15.140625 L 6.890625 -12.703125 Z M 5.25 -12.703125 "/></g></g></g><g fill="#545454" fill-opacity="1"><g transform="translate(358.708655, 57.658049)"><g><path d="M 4.375 0 L 0.3125 -11.625 L 2.953125 -11.625 L 4.8125 -6 C 5.03125 -5.289062 5.253906 -4.515625 5.484375 -3.671875 C 5.722656 -2.828125 5.972656 -1.90625 6.234375 -0.90625 L 5.671875 -0.90625 C 5.929688 -1.914062 6.171875 -2.835938 6.390625 -3.671875 C 6.617188 -4.515625 6.835938 -5.289062 7.046875 -6 L 8.84375 -11.625 L 11.46875 -11.625 L 7.484375 0 Z M 4.375 0 "/></g></g></g><g fill="#545454" fill-opacity="1"><g transform="translate(370.483869, 57.658049)"><g><path d="M 3.390625 -11.625 L 3.390625 0 L 1 0 L 1 -11.625 Z M 3.390625 -11.625 "/></g></g></g><g fill="#545454" fill-opacity="1"><g transform="translate(374.889832, 57.658049)"><g><path d="M 1 0 L 1 -11.625 L 3.390625 -11.625 L 3.390625 -2 L 8.46875 -2 L 8.46875 0 Z M 1 0 "/></g></g></g><path fill="#545454" d="M 356.652344 165.484375 L 356.652344 162.492188 L 359.648438 162.492188 L 359.648438 165.484375 M 356.652344 159.496094 L 356.652344 156.5 L 359.648438 156.5 L 359.648438 159.496094 M 356.652344 153.503906 L 356.652344 150.511719 L 359.648438 150.511719 L 359.648438 153.503906 M 356.652344 147.515625 L 356.652344 144.519531 L 359.648438 144.519531 L 359.648438 147.515625 M 356.652344 141.523438 L 356.652344 138.527344 L 359.648438 138.527344 L 359.648438 141.523438 M 356.652344 135.535156 L 356.652344 132.539062 L 359.648438 132.539062 L 359.648438 135.535156 M 356.652344 129.542969 L 356.652344 126.546875 L 359.648438 126.546875 L 359.648438 129.542969 M 356.652344 123.554688 L 356.652344 120.558594 L 359.648438 120.558594 L 359.648438 123.554688 M 356.652344 117.5625 L 356.652344 114.566406 L 359.648438 114.566406 L 359.648438 117.5625 " fill-opacity="1" fill-rule="nonzero"/><path stroke-linecap="round" transform="matrix(0.748806, 0, 0, 0.748806, 356.65201, 105.581614)" fill-opacity="1" fill="#545454" fill-rule="nonzero" stroke-linejoin="round" d="M -4.000718 10.000857 L 1.998419 1.998531 L 7.997555 10.000857 Z M -4.000718 10.000857 " stroke="#545454" stroke-width="4" stroke-opacity="1" stroke-miterlimit="4"/><g fill="#545454" fill-opacity="1"><g transform="translate(305.35882, 141.89869)"><g><path d="M 3.859375 0 L 0.34375 -13.078125 L 3.265625 -13.078125 L 4.78125 -6.640625 C 4.90625 -6.085938 5.019531 -5.515625 5.125 -4.921875 C 5.226562 -4.328125 5.328125 -3.726562 5.421875 -3.125 C 5.523438 -2.53125 5.625 -1.953125 5.71875 -1.390625 L 5.234375 -1.390625 C 5.335938 -1.953125 5.441406 -2.53125 5.546875 -3.125 C 5.660156 -3.726562 5.769531 -4.328125 5.875 -4.921875 C 5.988281 -5.515625 6.113281 -6.085938 6.25 -6.640625 L 7.859375 -13.078125 L 10.640625 -13.078125 L 12.21875 -6.640625 C 12.351562 -6.085938 12.476562 -5.515625 12.59375 -4.921875 C 12.707031 -4.328125 12.816406 -3.726562 12.921875 -3.125 C 13.023438 -2.53125 13.128906 -1.953125 13.234375 -1.390625 L 12.734375 -1.390625 C 12.835938 -1.953125 12.9375 -2.53125 13.03125 -3.125 C 13.132812 -3.726562 13.238281 -4.328125 13.34375 -4.921875 C 13.457031 -5.515625 13.570312 -6.085938 13.6875 -6.640625 L 15.203125 -13.078125 L 18.125 -13.078125 L 14.609375 0 L 11.5625 0 L 9.796875 -6.78125 C 9.617188 -7.476562 9.460938 -8.234375 9.328125 -9.046875 C 9.203125 -9.867188 9.054688 -10.722656 8.890625 -11.609375 L 9.578125 -11.609375 C 9.398438 -10.734375 9.25 -9.890625 9.125 -9.078125 C 9.007812 -8.273438 8.859375 -7.507812 8.671875 -6.78125 L 6.90625 0 Z M 3.859375 0 "/></g></g></g><g fill="#545454" fill-opacity="1"><g transform="translate(323.827079, 141.89869)"><g><path d="M 3.8125 -13.078125 L 3.8125 0 L 1.125 0 L 1.125 -13.078125 Z M 3.8125 -13.078125 "/></g></g></g><g fill="#545454" fill-opacity="1"><g transform="translate(328.78177, 141.89869)"><g><path d="M 1.125 0 L 1.125 -13.078125 L 9.84375 -13.078125 L 9.84375 -10.828125 L 3.8125 -10.828125 L 3.8125 -7.28125 L 9.296875 -7.28125 L 9.296875 -5.078125 L 3.8125 -5.078125 L 3.8125 0 Z M 1.125 0 "/></g></g></g><g fill="#545454" fill-opacity="1"><g transform="translate(339.304994, 141.89869)"><g><path d="M 3.8125 -13.078125 L 3.8125 0 L 1.125 0 L 1.125 -13.078125 Z M 3.8125 -13.078125 "/></g></g></g><g clip-path="url(#48e749b49b)"><g clip-path="url(#b547f8c42d)"><g transform="matrix(1, 0, 0, 1, 139, 363)"><g clip-path="url(#479c15b64d)"><g clip-path="url(#76123d074e)"><g clip-path="url(#9afe7e7b46)"><path fill="#ffc2e8" d="M 0.871094 0.269531 L 124.601562 0.269531 L 124.601562 105.851562 L 0.871094 105.851562 Z M 0.871094 0.269531 " fill-opacity="1" fill-rule="nonzero"/></g></g></g></g></g></g><g clip-path="url(#0b2bb6577f)"><g clip-path="url(#f9d249bcd0)"><path stroke-linecap="butt" transform="matrix(0.748806, 0, 0, 0.748806, 139.87276, 363.268618)" fill="none" stroke-linejoin="miter" d="M 25.99751 0.00121968 L 139.000373 0.00121968 C 153.361783 0.00121968 165.000108 11.639544 165.000108 26.000955 L 165.000108 115.002055 C 165.000108 129.358249 153.361783 141.001791 139.000373 141.001791 L 25.99751 141.001791 C 11.641316 141.001791 -0.00222494 129.358249 -0.00222494 115.002055 L -0.00222494 26.000955 C -0.00222494 11.639544 11.641316 0.00121968 25.99751 0.00121968 Z M 25.99751 0.00121968 " stroke="#545454" stroke-width="8" stroke-opacity="1" stroke-miterlimit="4"/></g></g><g fill="#545454" fill-opacity="1"><g transform="translate(170.012189, 420.926657)"><g><path d="M 1 0 L 1 -11.625 L 5.625 -11.625 C 6.476562 -11.625 7.1875 -11.492188 7.75 -11.234375 C 8.320312 -10.984375 8.753906 -10.628906 9.046875 -10.171875 C 9.335938 -9.722656 9.484375 -9.207031 9.484375 -8.625 C 9.484375 -8.175781 9.390625 -7.78125 9.203125 -7.4375 C 9.023438 -7.09375 8.78125 -6.8125 8.46875 -6.59375 C 8.15625 -6.375 7.796875 -6.21875 7.390625 -6.125 L 7.390625 -6.03125 C 7.835938 -6.007812 8.253906 -5.878906 8.640625 -5.640625 C 9.023438 -5.410156 9.332031 -5.085938 9.5625 -4.671875 C 9.800781 -4.265625 9.921875 -3.78125 9.921875 -3.21875 C 9.921875 -2.601562 9.769531 -2.050781 9.46875 -1.5625 C 9.164062 -1.070312 8.71875 -0.6875 8.125 -0.40625 C 7.53125 -0.132812 6.796875 0 5.921875 0 Z M 3.390625 -1.9375 L 5.484375 -1.9375 C 6.160156 -1.9375 6.660156 -2.070312 6.984375 -2.34375 C 7.316406 -2.613281 7.484375 -2.972656 7.484375 -3.421875 C 7.484375 -3.753906 7.40625 -4.039062 7.25 -4.28125 C 7.09375 -4.53125 6.867188 -4.722656 6.578125 -4.859375 C 6.285156 -5.003906 5.9375 -5.078125 5.53125 -5.078125 L 3.390625 -5.078125 Z M 3.390625 -6.75 L 5.3125 -6.75 C 5.65625 -6.75 5.957031 -6.804688 6.21875 -6.921875 C 6.488281 -7.046875 6.695312 -7.222656 6.84375 -7.453125 C 7 -7.679688 7.078125 -7.945312 7.078125 -8.25 C 7.078125 -8.675781 6.925781 -9.019531 6.625 -9.28125 C 6.320312 -9.550781 5.894531 -9.6875 5.34375 -9.6875 L 3.390625 -9.6875 Z M 3.390625 -6.75 "/></g></g></g><g fill="#545454" fill-opacity="1"><g transform="translate(180.51631, 420.926657)"><g><path d="M 5.796875 0.15625 C 4.828125 0.15625 3.984375 -0.015625 3.265625 -0.359375 C 2.554688 -0.710938 2 -1.207031 1.59375 -1.84375 C 1.195312 -2.488281 1 -3.226562 1 -4.0625 L 1 -11.625 L 3.375 -11.625 L 3.375 -4.265625 C 3.375 -3.816406 3.472656 -3.414062 3.671875 -3.0625 C 3.878906 -2.707031 4.160156 -2.429688 4.515625 -2.234375 C 4.878906 -2.035156 5.304688 -1.9375 5.796875 -1.9375 C 6.285156 -1.9375 6.707031 -2.035156 7.0625 -2.234375 C 7.425781 -2.429688 7.707031 -2.707031 7.90625 -3.0625 C 8.101562 -3.414062 8.203125 -3.816406 8.203125 -4.265625 L 8.203125 -11.625 L 10.59375 -11.625 L 10.59375 -4.0625 C 10.59375 -3.226562 10.390625 -2.488281 9.984375 -1.84375 C 9.585938 -1.207031 9.03125 -0.710938 8.3125 -0.359375 C 7.59375 -0.015625 6.753906 0.15625 5.796875 0.15625 Z M 5.796875 0.15625 "/></g></g></g><g fill="#545454" fill-opacity="1"><g transform="translate(192.104368, 420.926657)"><g><path d="M 0.78125 0 L 0.78125 -1.515625 L 5.59375 -8.09375 C 5.882812 -8.488281 6.203125 -8.882812 6.546875 -9.28125 C 6.890625 -9.6875 7.238281 -10.085938 7.59375 -10.484375 L 7.796875 -9.703125 C 7.273438 -9.660156 6.753906 -9.632812 6.234375 -9.625 C 5.722656 -9.625 5.210938 -9.625 4.703125 -9.625 L 0.8125 -9.625 L 0.8125 -11.625 L 9.703125 -11.625 L 9.703125 -10.09375 L 4.984375 -3.625 C 4.671875 -3.207031 4.335938 -2.789062 3.984375 -2.375 C 3.628906 -1.957031 3.273438 -1.546875 2.921875 -1.140625 L 2.71875 -1.921875 C 3.25 -1.953125 3.773438 -1.972656 4.296875 -1.984375 C 4.828125 -1.992188 5.359375 -2 5.890625 -2 L 9.734375 -2 L 9.734375 0 Z M 0.78125 0 "/></g></g></g><g fill="#545454" fill-opacity="1"><g transform="translate(202.608489, 420.926657)"><g><path d="M 0.78125 0 L 0.78125 -1.515625 L 5.59375 -8.09375 C 5.882812 -8.488281 6.203125 -8.882812 6.546875 -9.28125 C 6.890625 -9.6875 7.238281 -10.085938 7.59375 -10.484375 L 7.796875 -9.703125 C 7.273438 -9.660156 6.753906 -9.632812 6.234375 -9.625 C 5.722656 -9.625 5.210938 -9.625 4.703125 -9.625 L 0.8125 -9.625 L 0.8125 -11.625 L 9.703125 -11.625 L 9.703125 -10.09375 L 4.984375 -3.625 C 4.671875 -3.207031 4.335938 -2.789062 3.984375 -2.375 C 3.628906 -1.957031 3.273438 -1.546875 2.921875 -1.140625 L 2.71875 -1.921875 C 3.25 -1.953125 3.773438 -1.972656 4.296875 -1.984375 C 4.828125 -1.992188 5.359375 -2 5.890625 -2 L 9.734375 -2 L 9.734375 0 Z M 0.78125 0 "/></g></g></g><g fill="#545454" fill-opacity="1"><g transform="translate(213.112609, 420.926657)"><g><path d="M 1 0 L 1 -11.625 L 8.90625 -11.625 L 8.90625 -9.625 L 3.390625 -9.625 L 3.390625 -6.84375 L 8.484375 -6.84375 L 8.484375 -4.890625 L 3.390625 -4.890625 L 3.390625 -2 L 8.921875 -2 L 8.921875 0 Z M 1 0 "/></g></g></g><g fill="#545454" fill-opacity="1"><g transform="translate(222.813514, 420.926657)"><g><path d="M 1 0 L 1 -11.625 L 5.5625 -11.625 C 6.445312 -11.625 7.195312 -11.46875 7.8125 -11.15625 C 8.4375 -10.84375 8.914062 -10.398438 9.25 -9.828125 C 9.582031 -9.265625 9.75 -8.597656 9.75 -7.828125 C 9.75 -7.066406 9.578125 -6.40625 9.234375 -5.84375 C 8.898438 -5.289062 8.414062 -4.863281 7.78125 -4.5625 C 7.144531 -4.269531 6.378906 -4.125 5.484375 -4.125 L 2.421875 -4.125 L 2.421875 -6.046875 L 5.203125 -6.046875 C 5.671875 -6.046875 6.0625 -6.113281 6.375 -6.25 C 6.6875 -6.394531 6.921875 -6.597656 7.078125 -6.859375 C 7.234375 -7.128906 7.3125 -7.453125 7.3125 -7.828125 C 7.3125 -8.210938 7.234375 -8.539062 7.078125 -8.8125 C 6.921875 -9.082031 6.6875 -9.285156 6.375 -9.421875 C 6.0625 -9.566406 5.664062 -9.640625 5.1875 -9.640625 L 3.390625 -9.640625 L 3.390625 0 Z M 7.5 0 L 4.703125 -5.28125 L 7.28125 -5.28125 L 10.125 0 Z M 7.5 0 "/></g></g></g><path stroke-linecap="butt" transform="matrix(0.748806, 0, 0, 0.748806, 200.151619, 271.067674)" fill="none" stroke-linejoin="miter" d="M 210.998419 -0.00169252 L 210.998419 37.563334 C 210.998419 50.818817 200.257356 61.565096 187.001873 61.565096 L 26.000704 61.565096 C 12.745221 61.565096 1.998942 72.311375 1.998942 85.566858 L 1.998942 112.129991 " stroke="#545454" stroke-width="4" stroke-opacity="1" stroke-miterlimit="4"/><path stroke-linecap="round" transform="matrix(0.748806, 0, 0, 0.748806, 200.151619, 271.067674)" fill-opacity="1" fill="#545454" fill-rule="nonzero" stroke-linejoin="round" d="M 7.998078 113.131586 L 1.998942 121.128695 L -4.000195 113.131586 Z M 7.998078 113.131586 " stroke="#545454" stroke-width="4" stroke-opacity="1" stroke-miterlimit="4"/><g clip-path="url(#3c1b58423b)"><g clip-path="url(#899c585836)"><g transform="matrix(1, 0, 0, 1, 121, 165)"><g clip-path="url(#0b1ca33a5c)"><g clip-path="url(#baf4381753)"><g clip-path="url(#822dd87923)"><path fill="#c2ffe1" d="M 0.902344 0.484375 L 124.628906 0.484375 L 124.628906 106.066406 L 0.902344 106.066406 Z M 0.902344 0.484375 " fill-opacity="1" fill-rule="nonzero"/></g></g></g></g></g></g><g clip-path="url(#d6908017e4)"><g clip-path="url(#309513de2f)"><path stroke-linecap="butt" transform="matrix(0.748806, 0, 0, 0.748806, 121.901423, 165.48607)" fill="none" stroke-linejoin="miter" d="M 26.000965 -0.00226337 L 138.998611 -0.00226337 C 153.360021 -0.00226337 164.998346 11.641278 164.998346 25.997472 L 164.998346 114.998572 C 164.998346 129.359983 153.360021 140.998307 138.998611 140.998307 L 26.000965 140.998307 C 11.639554 140.998307 0.00122964 129.359983 0.00122964 114.998572 L 0.00122964 25.997472 C 0.00122964 11.641278 11.639554 -0.00226337 26.000965 -0.00226337 Z M 26.000965 -0.00226337 " stroke="#545454" stroke-width="8" stroke-opacity="1" stroke-miterlimit="4"/></g></g><g fill="#545454" fill-opacity="1"><g transform="translate(168.210376, 223.144109)"><g><path d="M 1 0 L 1 -11.625 L 3.390625 -11.625 L 3.390625 -2 L 8.46875 -2 L 8.46875 0 Z M 1 0 "/></g></g></g><g fill="#545454" fill-opacity="1"><g transform="translate(177.209447, 223.144109)"><g><path d="M 5.09375 0 L 2.09375 0 L 2.09375 -2.046875 L 4.984375 -2.046875 C 5.734375 -2.046875 6.363281 -2.179688 6.875 -2.453125 C 7.382812 -2.722656 7.765625 -3.132812 8.015625 -3.6875 C 8.265625 -4.25 8.390625 -4.957031 8.390625 -5.8125 C 8.390625 -6.664062 8.265625 -7.367188 8.015625 -7.921875 C 7.765625 -8.484375 7.382812 -8.898438 6.875 -9.171875 C 6.375 -9.441406 5.75 -9.578125 5 -9.578125 L 2.03125 -9.578125 L 2.03125 -11.625 L 5.140625 -11.625 C 6.304688 -11.625 7.304688 -11.390625 8.140625 -10.921875 C 8.984375 -10.453125 9.632812 -9.785156 10.09375 -8.921875 C 10.550781 -8.054688 10.78125 -7.019531 10.78125 -5.8125 C 10.78125 -4.601562 10.550781 -3.566406 10.09375 -2.703125 C 9.644531 -1.835938 8.992188 -1.171875 8.140625 -0.703125 C 7.296875 -0.234375 6.28125 0 5.09375 0 Z M 3.390625 -11.625 L 3.390625 0 L 1 0 L 1 -11.625 Z M 3.390625 -11.625 "/></g></g></g><g fill="#545454" fill-opacity="1"><g transform="translate(188.664942, 223.144109)"><g><path d="M 1 0 L 1 -11.625 L 5.5625 -11.625 C 6.445312 -11.625 7.195312 -11.46875 7.8125 -11.15625 C 8.4375 -10.84375 8.914062 -10.398438 9.25 -9.828125 C 9.582031 -9.265625 9.75 -8.597656 9.75 -7.828125 C 9.75 -7.066406 9.578125 -6.40625 9.234375 -5.84375 C 8.898438 -5.289062 8.414062 -4.863281 7.78125 -4.5625 C 7.144531 -4.269531 6.378906 -4.125 5.484375 -4.125 L 2.421875 -4.125 L 2.421875 -6.046875 L 5.203125 -6.046875 C 5.671875 -6.046875 6.0625 -6.113281 6.375 -6.25 C 6.6875 -6.394531 6.921875 -6.597656 7.078125 -6.859375 C 7.234375 -7.128906 7.3125 -7.453125 7.3125 -7.828125 C 7.3125 -8.210938 7.234375 -8.539062 7.078125 -8.8125 C 6.921875 -9.082031 6.6875 -9.285156 6.375 -9.421875 C 6.0625 -9.566406 5.664062 -9.640625 5.1875 -9.640625 L 3.390625 -9.640625 L 3.390625 0 Z M 7.5 0 L 4.703125 -5.28125 L 7.28125 -5.28125 L 10.125 0 Z M 7.5 0 "/></g></g></g><path stroke-linecap="butt" transform="matrix(0.748806, 0, 0, 0.748806, 245.454364, 216.77926)" fill="none" stroke-linejoin="miter" d="M 68.998847 2.00063 L -0.00165409 2.00063 " stroke="#545454" stroke-width="4" stroke-opacity="1" stroke-miterlimit="4"/><path stroke-linecap="round" transform="matrix(0.748806, 0, 0, 0.748806, 245.454364, 216.77926)" fill-opacity="1" fill="#545454" fill-rule="nonzero" stroke-linejoin="round" d="M 70.000442 7.999767 L 77.997552 2.00063 L 70.000442 -3.998506 Z M 70.000442 7.999767 " stroke="#545454" stroke-width="4" stroke-opacity="1" stroke-miterlimit="4"/><g clip-path="url(#ad3bd5ed93)"><g clip-path="url(#17c4e5c06b)"><g transform="matrix(1, 0, 0, 1, 305, 363)"><g clip-path="url(#3482b27226)"><g clip-path="url(#fc13a0e832)"><g clip-path="url(#9819d98b12)"><path fill="#ffc2e8" d="M 0.359375 0.269531 L 105.941406 0.269531 L 105.941406 105.851562 L 0.359375 105.851562 Z M 0.359375 0.269531 " fill-opacity="1" fill-rule="nonzero"/></g></g></g></g><path stroke-linecap="butt" transform="matrix(0.748806, 0, 0, 0.748806, 305.35882, 363.268618)" fill="none" stroke-linejoin="miter" d="M 26.000477 0.00121968 L 115.001577 0.00121968 C 129.357771 0.00121968 141.001313 11.639544 141.001313 26.000955 L 141.001313 115.002055 C 141.001313 129.358249 129.357771 141.001791 115.001577 141.001791 L 26.000477 141.001791 C 11.639066 141.001791 0.000741656 129.358249 0.000741656 115.002055 L 0.000741656 26.000955 C 0.000741656 11.639544 11.639066 0.00121968 26.000477 0.00121968 Z M 26.000477 0.00121968 " stroke="#545454" stroke-width="8" stroke-opacity="1" stroke-miterlimit="4"/></g></g><g fill="#545454" fill-opacity="1"><g transform="translate(317.913015, 410.443377)"><g><path d="M 5.09375 0 L 2.09375 0 L 2.09375 -2.046875 L 4.984375 -2.046875 C 5.734375 -2.046875 6.363281 -2.179688 6.875 -2.453125 C 7.382812 -2.722656 7.765625 -3.132812 8.015625 -3.6875 C 8.265625 -4.25 8.390625 -4.957031 8.390625 -5.8125 C 8.390625 -6.664062 8.265625 -7.367188 8.015625 -7.921875 C 7.765625 -8.484375 7.382812 -8.898438 6.875 -9.171875 C 6.375 -9.441406 5.75 -9.578125 5 -9.578125 L 2.03125 -9.578125 L 2.03125 -11.625 L 5.140625 -11.625 C 6.304688 -11.625 7.304688 -11.390625 8.140625 -10.921875 C 8.984375 -10.453125 9.632812 -9.785156 10.09375 -8.921875 C 10.550781 -8.054688 10.78125 -7.019531 10.78125 -5.8125 C 10.78125 -4.601562 10.550781 -3.566406 10.09375 -2.703125 C 9.644531 -1.835938 8.992188 -1.171875 8.140625 -0.703125 C 7.296875 -0.234375 6.28125 0 5.09375 0 Z M 3.390625 -11.625 L 3.390625 0 L 1 0 L 1 -11.625 Z M 3.390625 -11.625 "/></g></g></g><g fill="#545454" fill-opacity="1"><g transform="translate(329.368511, 410.443377)"><g><path d="M 3.390625 -11.625 L 3.390625 0 L 1 0 L 1 -11.625 Z M 3.390625 -11.625 "/></g></g></g><g fill="#545454" fill-opacity="1"><g transform="translate(333.774474, 410.443377)"><g><path d="M 5.296875 0.171875 C 4.359375 0.171875 3.539062 0.0234375 2.84375 -0.265625 C 2.15625 -0.554688 1.617188 -0.984375 1.234375 -1.546875 C 0.847656 -2.117188 0.648438 -2.820312 0.640625 -3.65625 L 2.953125 -3.65625 C 2.972656 -3.257812 3.082031 -2.921875 3.28125 -2.640625 C 3.488281 -2.367188 3.765625 -2.164062 4.109375 -2.03125 C 4.453125 -1.894531 4.84375 -1.828125 5.28125 -1.828125 C 5.707031 -1.828125 6.082031 -1.890625 6.40625 -2.015625 C 6.726562 -2.140625 6.976562 -2.3125 7.15625 -2.53125 C 7.332031 -2.757812 7.421875 -3.019531 7.421875 -3.3125 C 7.421875 -3.570312 7.34375 -3.789062 7.1875 -3.96875 C 7.03125 -4.15625 6.800781 -4.3125 6.5 -4.4375 C 6.207031 -4.570312 5.835938 -4.6875 5.390625 -4.78125 L 4.125 -5.09375 C 3.113281 -5.332031 2.328125 -5.710938 1.765625 -6.234375 C 1.203125 -6.753906 0.921875 -7.429688 0.921875 -8.265625 C 0.921875 -8.972656 1.109375 -9.585938 1.484375 -10.109375 C 1.867188 -10.640625 2.390625 -11.050781 3.046875 -11.34375 C 3.703125 -11.632812 4.457031 -11.78125 5.3125 -11.78125 C 6.175781 -11.78125 6.925781 -11.628906 7.5625 -11.328125 C 8.207031 -11.035156 8.707031 -10.625 9.0625 -10.09375 C 9.425781 -9.5625 9.613281 -8.945312 9.625 -8.25 L 7.34375 -8.25 C 7.300781 -8.726562 7.097656 -9.101562 6.734375 -9.375 C 6.367188 -9.644531 5.890625 -9.78125 5.296875 -9.78125 C 4.890625 -9.78125 4.539062 -9.722656 4.25 -9.609375 C 3.96875 -9.492188 3.75 -9.332031 3.59375 -9.125 C 3.4375 -8.914062 3.359375 -8.679688 3.359375 -8.421875 C 3.359375 -8.140625 3.441406 -7.90625 3.609375 -7.71875 C 3.773438 -7.539062 4 -7.390625 4.28125 -7.265625 C 4.570312 -7.148438 4.894531 -7.050781 5.25 -6.96875 L 6.3125 -6.703125 C 6.832031 -6.585938 7.304688 -6.4375 7.734375 -6.25 C 8.160156 -6.0625 8.53125 -5.832031 8.84375 -5.5625 C 9.15625 -5.289062 9.394531 -4.96875 9.5625 -4.59375 C 9.726562 -4.226562 9.8125 -3.8125 9.8125 -3.34375 C 9.8125 -2.625 9.628906 -2 9.265625 -1.46875 C 8.910156 -0.945312 8.394531 -0.539062 7.71875 -0.25 C 7.050781 0.03125 6.242188 0.171875 5.296875 0.171875 Z M 5.296875 0.171875 "/></g></g></g><g fill="#545454" fill-opacity="1"><g transform="translate(344.224002, 410.443377)"><g><path d="M 1 0 L 1 -11.625 L 5.546875 -11.625 C 6.429688 -11.625 7.179688 -11.457031 7.796875 -11.125 C 8.421875 -10.789062 8.898438 -10.332031 9.234375 -9.75 C 9.566406 -9.164062 9.734375 -8.488281 9.734375 -7.71875 C 9.734375 -6.945312 9.5625 -6.269531 9.21875 -5.6875 C 8.882812 -5.101562 8.40625 -4.648438 7.78125 -4.328125 C 7.15625 -4.003906 6.394531 -3.84375 5.5 -3.84375 L 2.515625 -3.84375 L 2.515625 -5.78125 L 5.1875 -5.78125 C 5.65625 -5.78125 6.046875 -5.859375 6.359375 -6.015625 C 6.671875 -6.179688 6.90625 -6.410156 7.0625 -6.703125 C 7.21875 -6.992188 7.296875 -7.332031 7.296875 -7.71875 C 7.296875 -8.101562 7.21875 -8.4375 7.0625 -8.71875 C 6.90625 -9.007812 6.671875 -9.234375 6.359375 -9.390625 C 6.046875 -9.554688 5.648438 -9.640625 5.171875 -9.640625 L 3.390625 -9.640625 L 3.390625 0 Z M 1 0 "/></g></g></g><g fill="#545454" fill-opacity="1"><g transform="translate(354.517567, 410.443377)"><g><path d="M 1 0 L 1 -11.625 L 3.390625 -11.625 L 3.390625 -2 L 8.46875 -2 L 8.46875 0 Z M 1 0 "/></g></g></g><g fill="#545454" fill-opacity="1"><g transform="translate(363.516638, 410.443377)"><g><path d="M 0.3125 0 L 4.3125 -11.625 L 7.421875 -11.625 L 11.5 0 L 8.84375 0 L 6.984375 -5.609375 C 6.765625 -6.335938 6.535156 -7.125 6.296875 -7.96875 C 6.066406 -8.8125 5.820312 -9.742188 5.5625 -10.765625 L 6.109375 -10.765625 C 5.859375 -9.742188 5.625 -8.804688 5.40625 -7.953125 C 5.1875 -7.109375 4.96875 -6.328125 4.75 -5.609375 L 2.9375 0 Z M 2.8125 -2.65625 L 2.8125 -4.53125 L 8.984375 -4.53125 L 8.984375 -2.65625 Z M 2.8125 -2.65625 "/></g></g></g><g fill="#545454" fill-opacity="1"><g transform="translate(373.966051, 410.443377)"><g><path d="M 4.609375 0 L 4.609375 -4.359375 L 0.3125 -11.625 L 3.09375 -11.625 L 5.0625 -8.015625 C 5.25 -7.671875 5.421875 -7.320312 5.578125 -6.96875 C 5.742188 -6.625 5.910156 -6.222656 6.078125 -5.765625 L 5.5625 -5.765625 C 5.71875 -6.222656 5.875 -6.628906 6.03125 -6.984375 C 6.1875 -7.335938 6.359375 -7.679688 6.546875 -8.015625 L 8.4375 -11.625 L 11.21875 -11.625 L 6.984375 -4.359375 L 6.984375 0 Z M 4.609375 0 "/></g></g></g><g fill="#545454" fill-opacity="1"><g transform="translate(385.491724, 410.443377)"><g/></g></g><g fill="#545454" fill-opacity="1"><g transform="translate(389.195854, 410.443377)"><g><path d="M 1.328125 0 L 6.171875 -9.578125 L 6.171875 -9.640625 L 0.53125 -9.640625 L 0.53125 -11.625 L 8.640625 -11.625 L 8.640625 -9.625 L 3.796875 0 Z M 1.328125 0 "/></g></g></g><g fill="#545454" fill-opacity="1"><g transform="translate(342.108799, 432.158742)"><g><path d="M 5.296875 0.171875 C 4.359375 0.171875 3.539062 0.0234375 2.84375 -0.265625 C 2.15625 -0.554688 1.617188 -0.984375 1.234375 -1.546875 C 0.847656 -2.117188 0.648438 -2.820312 0.640625 -3.65625 L 2.953125 -3.65625 C 2.972656 -3.257812 3.082031 -2.921875 3.28125 -2.640625 C 3.488281 -2.367188 3.765625 -2.164062 4.109375 -2.03125 C 4.453125 -1.894531 4.84375 -1.828125 5.28125 -1.828125 C 5.707031 -1.828125 6.082031 -1.890625 6.40625 -2.015625 C 6.726562 -2.140625 6.976562 -2.3125 7.15625 -2.53125 C 7.332031 -2.757812 7.421875 -3.019531 7.421875 -3.3125 C 7.421875 -3.570312 7.34375 -3.789062 7.1875 -3.96875 C 7.03125 -4.15625 6.800781 -4.3125 6.5 -4.4375 C 6.207031 -4.570312 5.835938 -4.6875 5.390625 -4.78125 L 4.125 -5.09375 C 3.113281 -5.332031 2.328125 -5.710938 1.765625 -6.234375 C 1.203125 -6.753906 0.921875 -7.429688 0.921875 -8.265625 C 0.921875 -8.972656 1.109375 -9.585938 1.484375 -10.109375 C 1.867188 -10.640625 2.390625 -11.050781 3.046875 -11.34375 C 3.703125 -11.632812 4.457031 -11.78125 5.3125 -11.78125 C 6.175781 -11.78125 6.925781 -11.628906 7.5625 -11.328125 C 8.207031 -11.035156 8.707031 -10.625 9.0625 -10.09375 C 9.425781 -9.5625 9.613281 -8.945312 9.625 -8.25 L 7.34375 -8.25 C 7.300781 -8.726562 7.097656 -9.101562 6.734375 -9.375 C 6.367188 -9.644531 5.890625 -9.78125 5.296875 -9.78125 C 4.890625 -9.78125 4.539062 -9.722656 4.25 -9.609375 C 3.96875 -9.492188 3.75 -9.332031 3.59375 -9.125 C 3.4375 -8.914062 3.359375 -8.679688 3.359375 -8.421875 C 3.359375 -8.140625 3.441406 -7.90625 3.609375 -7.71875 C 3.773438 -7.539062 4 -7.390625 4.28125 -7.265625 C 4.570312 -7.148438 4.894531 -7.050781 5.25 -6.96875 L 6.3125 -6.703125 C 6.832031 -6.585938 7.304688 -6.4375 7.734375 -6.25 C 8.160156 -6.0625 8.53125 -5.832031 8.84375 -5.5625 C 9.15625 -5.289062 9.394531 -4.96875 9.5625 -4.59375 C 9.726562 -4.226562 9.8125 -3.8125 9.8125 -3.34375 C 9.8125 -2.625 9.628906 -2 9.265625 -1.46875 C 8.910156 -0.945312 8.394531 -0.539062 7.71875 -0.25 C 7.050781 0.03125 6.242188 0.171875 5.296875 0.171875 Z M 5.296875 0.171875 "/></g></g></g><g fill="#545454" fill-opacity="1"><g transform="translate(352.558327, 432.158742)"><g><path d="M 1 0 L 1 -11.625 L 8.90625 -11.625 L 8.90625 -9.625 L 3.390625 -9.625 L 3.390625 -6.84375 L 8.484375 -6.84375 L 8.484375 -4.890625 L 3.390625 -4.890625 L 3.390625 -2 L 8.921875 -2 L 8.921875 0 Z M 1 0 "/></g></g></g><g fill="#545454" fill-opacity="1"><g transform="translate(362.259232, 432.158742)"><g><path d="M 6.15625 0.15625 C 5.070312 0.15625 4.117188 -0.0820312 3.296875 -0.5625 C 2.472656 -1.050781 1.828125 -1.738281 1.359375 -2.625 C 0.898438 -3.519531 0.671875 -4.578125 0.671875 -5.796875 C 0.671875 -7.046875 0.910156 -8.117188 1.390625 -9.015625 C 1.867188 -9.910156 2.515625 -10.59375 3.328125 -11.0625 C 4.148438 -11.539062 5.078125 -11.78125 6.109375 -11.78125 C 6.765625 -11.78125 7.375 -11.6875 7.9375 -11.5 C 8.507812 -11.3125 9.015625 -11.039062 9.453125 -10.6875 C 9.898438 -10.332031 10.265625 -9.910156 10.546875 -9.421875 C 10.835938 -8.941406 11.019531 -8.414062 11.09375 -7.84375 L 8.671875 -7.84375 C 8.585938 -8.125 8.472656 -8.375 8.328125 -8.59375 C 8.179688 -8.820312 8 -9.015625 7.78125 -9.171875 C 7.570312 -9.335938 7.332031 -9.460938 7.0625 -9.546875 C 6.789062 -9.628906 6.488281 -9.671875 6.15625 -9.671875 C 5.539062 -9.671875 5.003906 -9.519531 4.546875 -9.21875 C 4.085938 -8.914062 3.726562 -8.476562 3.46875 -7.90625 C 3.21875 -7.332031 3.09375 -6.632812 3.09375 -5.8125 C 3.09375 -5 3.21875 -4.300781 3.46875 -3.71875 C 3.726562 -3.144531 4.085938 -2.707031 4.546875 -2.40625 C 5.003906 -2.101562 5.550781 -1.953125 6.1875 -1.953125 C 6.738281 -1.953125 7.21875 -2.050781 7.625 -2.25 C 8.03125 -2.457031 8.335938 -2.75 8.546875 -3.125 C 8.765625 -3.5 8.875 -3.9375 8.875 -4.4375 L 9.390625 -4.375 L 6.359375 -4.375 L 6.359375 -6.1875 L 11.203125 -6.1875 L 11.203125 -4.71875 C 11.203125 -3.71875 10.984375 -2.851562 10.546875 -2.125 C 10.117188 -1.394531 9.523438 -0.832031 8.765625 -0.4375 C 8.003906 -0.0390625 7.132812 0.15625 6.15625 0.15625 Z M 6.15625 0.15625 "/></g></g></g><path stroke-linecap="butt" transform="matrix(0.748806, 0, 0, 0.748806, 356.65201, 271.067674)" fill="none" stroke-linejoin="miter" d="M 1.998419 -0.00169252 L 1.998419 112.129991 " stroke="#545454" stroke-width="4" stroke-opacity="1" stroke-miterlimit="4"/><path stroke-linecap="round" transform="matrix(0.748806, 0, 0, 0.748806, 356.65201, 271.067674)" fill-opacity="1" fill="#545454" fill-rule="nonzero" stroke-linejoin="round" d="M 7.997555 113.131586 L 1.998419 121.128695 L -4.000718 113.131586 Z M 7.997555 113.131586 " stroke="#545454" stroke-width="4" stroke-opacity="1" stroke-miterlimit="4"/><g clip-path="url(#252e62525c)"><g clip-path="url(#4e90a599ad)"><g transform="matrix(1, 0, 0, 1, 0, 363)"><g clip-path="url(#ef6e33c3df)"><g clip-path="url(#452df15e57)"><g clip-path="url(#c80114790a)"><path fill="#ffc2e8" d="M 0.515625 0.269531 L 106.097656 0.269531 L 106.097656 105.851562 L 0.515625 105.851562 Z M 0.515625 0.269531 " fill-opacity="1" fill-rule="nonzero"/></g></g></g></g><path stroke-linecap="butt" transform="matrix(0.748806, 0, 0, 0.748806, 0.515924, 363.268618)" fill="none" stroke-linejoin="miter" d="M 25.999336 0.00121968 L 115.000436 0.00121968 C 129.361847 0.00121968 141.000172 11.639544 141.000172 26.000955 L 141.000172 115.002055 C 141.000172 129.358249 129.361847 141.001791 115.000436 141.001791 L 25.999336 141.001791 C 11.643142 141.001791 -0.000399092 129.358249 -0.000399092 115.002055 L -0.000399092 26.000955 C -0.000399092 11.639544 11.643142 0.00121968 25.999336 0.00121968 Z M 25.999336 0.00121968 " stroke="#545454" stroke-width="8" stroke-opacity="1" stroke-miterlimit="4"/></g></g><g fill="#545454" fill-opacity="1"><g transform="translate(38.225311, 420.926657)"><g><path d="M 1 0 L 1 -11.625 L 3.390625 -11.625 L 3.390625 -2 L 8.46875 -2 L 8.46875 0 Z M 1 0 "/></g></g></g><g fill="#545454" fill-opacity="1"><g transform="translate(47.224382, 420.926657)"><g><path d="M 1 0 L 1 -11.625 L 8.90625 -11.625 L 8.90625 -9.625 L 3.390625 -9.625 L 3.390625 -6.84375 L 8.484375 -6.84375 L 8.484375 -4.890625 L 3.390625 -4.890625 L 3.390625 -2 L 8.921875 -2 L 8.921875 0 Z M 1 0 "/></g></g></g><g fill="#545454" fill-opacity="1"><g transform="translate(56.925287, 420.926657)"><g><path d="M 5.09375 0 L 2.09375 0 L 2.09375 -2.046875 L 4.984375 -2.046875 C 5.734375 -2.046875 6.363281 -2.179688 6.875 -2.453125 C 7.382812 -2.722656 7.765625 -3.132812 8.015625 -3.6875 C 8.265625 -4.25 8.390625 -4.957031 8.390625 -5.8125 C 8.390625 -6.664062 8.265625 -7.367188 8.015625 -7.921875 C 7.765625 -8.484375 7.382812 -8.898438 6.875 -9.171875 C 6.375 -9.441406 5.75 -9.578125 5 -9.578125 L 2.03125 -9.578125 L 2.03125 -11.625 L 5.140625 -11.625 C 6.304688 -11.625 7.304688 -11.390625 8.140625 -10.921875 C 8.984375 -10.453125 9.632812 -9.785156 10.09375 -8.921875 C 10.550781 -8.054688 10.78125 -7.019531 10.78125 -5.8125 C 10.78125 -4.601562 10.550781 -3.566406 10.09375 -2.703125 C 9.644531 -1.835938 8.992188 -1.171875 8.140625 -0.703125 C 7.296875 -0.234375 6.28125 0 5.09375 0 Z M 3.390625 -11.625 L 3.390625 0 L 1 0 L 1 -11.625 Z M 3.390625 -11.625 "/></g></g></g><path stroke-linecap="butt" transform="matrix(0.748806, 0, 0, 0.748806, 51.809114, 271.067674)" fill="none" stroke-linejoin="miter" d="M 409.103888 -0.00169252 L 409.103888 37.563334 C 409.103888 50.818817 398.362825 61.565096 385.107342 61.565096 L 25.99904 61.565096 C 12.743557 61.565096 2.002495 72.311375 2.002495 85.566858 L 2.002495 112.129991 " stroke="#545454" stroke-width="4" stroke-opacity="1" stroke-miterlimit="4"/><path stroke-linecap="round" transform="matrix(0.748806, 0, 0, 0.748806, 51.809114, 271.067674)" fill-opacity="1" fill="#545454" fill-rule="nonzero" stroke-linejoin="round" d="M 8.001631 113.131586 L 2.002495 121.128695 L -4.001858 113.131586 Z M 8.001631 113.131586 " stroke="#545454" stroke-width="4" stroke-opacity="1" stroke-miterlimit="4"/></svg>